<mxfile host="65bd71144e">
    <diagram id="Iw7FmHwYmwAFIARhrb7G" name="Page-1">
        <mxGraphModel dx="5134" dy="3040" grid="1" gridSize="10" guides="1" tooltips="1" connect="1" arrows="1" fold="1" page="0" pageScale="1" pageWidth="827" pageHeight="1169" math="0" shadow="0">
            <root>
                <mxCell id="0"/>
                <mxCell id="1" parent="0"/>
                <mxCell id="3" value="The RigC language overview" style="text;html=1;strokeColor=none;fillColor=none;align=center;verticalAlign=middle;whiteSpace=wrap;rounded=0;fontSize=100;" parent="1" vertex="1">
                    <mxGeometry x="510" y="-450" width="1100" height="340" as="geometry"/>
                </mxCell>
                <mxCell id="11" style="edgeStyle=orthogonalEdgeStyle;html=1;entryX=0.5;entryY=0;entryDx=0;entryDy=0;fontSize=12;exitX=0.5;exitY=1;exitDx=0;exitDy=0;" parent="1" source="4" target="5" edge="1">
                    <mxGeometry relative="1" as="geometry">
                        <Array as="points">
                            <mxPoint x="142.5" y="600"/>
                            <mxPoint x="-237.5" y="600"/>
                        </Array>
                    </mxGeometry>
                </mxCell>
                <mxCell id="12" style="edgeStyle=orthogonalEdgeStyle;html=1;fontSize=12;" parent="1" source="4" target="6" edge="1">
                    <mxGeometry relative="1" as="geometry">
                        <Array as="points">
                            <mxPoint x="142.5" y="600"/>
                            <mxPoint x="17.5" y="600"/>
                        </Array>
                    </mxGeometry>
                </mxCell>
                <mxCell id="13" style="edgeStyle=orthogonalEdgeStyle;html=1;fontSize=12;exitX=0.5;exitY=1;exitDx=0;exitDy=0;" parent="1" source="4" target="7" edge="1">
                    <mxGeometry relative="1" as="geometry">
                        <Array as="points">
                            <mxPoint x="142.5" y="600"/>
                            <mxPoint x="267.5" y="600"/>
                        </Array>
                    </mxGeometry>
                </mxCell>
                <mxCell id="4" value="Projects" style="text;html=1;strokeColor=#2D7600;fillColor=#60a917;align=center;verticalAlign=middle;whiteSpace=wrap;rounded=0;fontSize=40;fontStyle=0;fontColor=#ffffff;" parent="1" vertex="1">
                    <mxGeometry x="-32.5" y="410" width="350" height="110" as="geometry"/>
                </mxCell>
                <mxCell id="5" value="Parser" style="text;html=1;strokeColor=#005700;fillColor=#008a00;align=center;verticalAlign=middle;whiteSpace=wrap;rounded=0;fontSize=24;fontColor=#ffffff;" parent="1" vertex="1">
                    <mxGeometry x="-327.5" y="635" width="180" height="80" as="geometry"/>
                </mxCell>
                <mxCell id="6" value="ParserApp" style="text;html=1;strokeColor=#005700;fillColor=#008a00;align=center;verticalAlign=middle;whiteSpace=wrap;rounded=0;fontSize=24;fontColor=#ffffff;" parent="1" vertex="1">
                    <mxGeometry x="-72.5" y="635" width="180" height="80" as="geometry"/>
                </mxCell>
                <mxCell id="7" value="VM" style="text;html=1;strokeColor=#005700;fillColor=#008a00;align=center;verticalAlign=middle;whiteSpace=wrap;rounded=0;fontSize=24;fontColor=#ffffff;" parent="1" vertex="1">
                    <mxGeometry x="177.5" y="635" width="180" height="80" as="geometry"/>
                </mxCell>
                <mxCell id="8" value="Defines grammar and provides functionality to get parsed tree representation of a RigC source file" style="text;html=1;strokeColor=none;fillColor=none;align=center;verticalAlign=middle;whiteSpace=wrap;rounded=0;fontSize=12;" parent="1" vertex="1">
                    <mxGeometry x="-332.5" y="740" width="190" height="60" as="geometry"/>
                </mxCell>
                <mxCell id="9" value="Used to execute the Parser library to display parsed source file in a form of a graph" style="text;html=1;strokeColor=none;fillColor=none;align=center;verticalAlign=middle;whiteSpace=wrap;rounded=0;fontSize=12;" parent="1" vertex="1">
                    <mxGeometry x="-77.5" y="725" width="190" height="90" as="geometry"/>
                </mxCell>
                <mxCell id="10" value="A virtual machine project used to parse (using Parser project) and then execute the RigC source file." style="text;html=1;strokeColor=none;fillColor=none;align=center;verticalAlign=middle;whiteSpace=wrap;rounded=0;fontSize=12;" parent="1" vertex="1">
                    <mxGeometry x="172.5" y="725" width="190" height="90" as="geometry"/>
                </mxCell>
                <mxCell id="14" value="Roadmap" style="text;html=1;strokeColor=#006EAF;fillColor=#1ba1e2;align=center;verticalAlign=middle;whiteSpace=wrap;rounded=0;fontSize=40;fontStyle=0;fontColor=#ffffff;" parent="1" vertex="1">
                    <mxGeometry x="-80" y="1169" width="440" height="110" as="geometry"/>
                </mxCell>
                <mxCell id="15" value="" style="endArrow=none;html=1;fontSize=24;strokeWidth=3;jumpSize=17;jumpStyle=none;rounded=1;shadow=0;sketch=0;strokeColor=#CCCCCC;" parent="1" edge="1">
                    <mxGeometry width="50" height="50" relative="1" as="geometry">
                        <mxPoint x="-239.74" y="1550" as="sourcePoint"/>
                        <mxPoint x="680.26" y="1550" as="targetPoint"/>
                    </mxGeometry>
                </mxCell>
                <mxCell id="16" value="Jan. 2022" style="text;html=1;strokeColor=none;fillColor=none;align=center;verticalAlign=middle;whiteSpace=wrap;rounded=0;fontSize=24;fontColor=#66FFFF;fontStyle=0" parent="1" vertex="1">
                    <mxGeometry x="-305" y="1480" width="125" height="30" as="geometry"/>
                </mxCell>
                <mxCell id="17" value="Project start" style="text;html=1;strokeColor=none;fillColor=none;align=center;verticalAlign=middle;whiteSpace=wrap;rounded=0;fontSize=16;fontStyle=1" parent="1" vertex="1">
                    <mxGeometry x="-297.5" y="1590" width="110" height="30" as="geometry"/>
                </mxCell>
                <mxCell id="18" value="" style="endArrow=none;html=1;rounded=1;shadow=0;sketch=0;fontSize=16;strokeWidth=5;jumpStyle=none;jumpSize=17;" parent="1" edge="1">
                    <mxGeometry width="50" height="50" relative="1" as="geometry">
                        <mxPoint x="-240" y="1570" as="sourcePoint"/>
                        <mxPoint x="-240" y="1530" as="targetPoint"/>
                    </mxGeometry>
                </mxCell>
                <mxCell id="19" value="Jan. 2023" style="text;html=1;strokeColor=none;fillColor=none;align=center;verticalAlign=middle;whiteSpace=wrap;rounded=0;fontSize=24;fontColor=#66FFFF;fontStyle=0" parent="1" vertex="1">
                    <mxGeometry x="415" y="1480" width="125" height="30" as="geometry"/>
                </mxCell>
                <mxCell id="20" value="" style="endArrow=none;html=1;rounded=1;shadow=0;sketch=0;fontSize=16;strokeWidth=3;jumpStyle=none;jumpSize=17;" parent="1" edge="1">
                    <mxGeometry width="50" height="50" relative="1" as="geometry">
                        <mxPoint x="-120" y="1560" as="sourcePoint"/>
                        <mxPoint x="-120" y="1540" as="targetPoint"/>
                    </mxGeometry>
                </mxCell>
                <mxCell id="21" value="" style="endArrow=none;html=1;rounded=1;shadow=0;sketch=0;fontSize=16;strokeWidth=3;jumpStyle=none;jumpSize=17;" parent="1" edge="1">
                    <mxGeometry width="50" height="50" relative="1" as="geometry">
                        <mxPoint y="1560" as="sourcePoint"/>
                        <mxPoint y="1540" as="targetPoint"/>
                    </mxGeometry>
                </mxCell>
                <mxCell id="22" value="" style="endArrow=none;html=1;rounded=1;shadow=0;sketch=0;fontSize=16;strokeWidth=3;jumpStyle=none;jumpSize=17;fontStyle=0" parent="1" edge="1">
                    <mxGeometry width="50" height="50" relative="1" as="geometry">
                        <mxPoint x="120" y="1560" as="sourcePoint"/>
                        <mxPoint x="120" y="1540" as="targetPoint"/>
                    </mxGeometry>
                </mxCell>
                <mxCell id="23" value="" style="endArrow=none;html=1;rounded=1;shadow=0;sketch=0;fontSize=16;strokeWidth=3;jumpStyle=none;jumpSize=17;" parent="1" edge="1">
                    <mxGeometry width="50" height="50" relative="1" as="geometry">
                        <mxPoint x="240" y="1560" as="sourcePoint"/>
                        <mxPoint x="240" y="1540" as="targetPoint"/>
                    </mxGeometry>
                </mxCell>
                <mxCell id="24" value="" style="endArrow=none;html=1;rounded=1;shadow=0;sketch=0;fontSize=16;strokeWidth=3;jumpStyle=none;jumpSize=17;" parent="1" edge="1">
                    <mxGeometry width="50" height="50" relative="1" as="geometry">
                        <mxPoint x="360" y="1560" as="sourcePoint"/>
                        <mxPoint x="360" y="1540" as="targetPoint"/>
                    </mxGeometry>
                </mxCell>
                <mxCell id="26" value="" style="endArrow=none;html=1;rounded=1;shadow=0;sketch=0;fontSize=16;strokeWidth=5;jumpStyle=none;jumpSize=17;" parent="1" edge="1">
                    <mxGeometry width="50" height="50" relative="1" as="geometry">
                        <mxPoint x="480" y="1570" as="sourcePoint"/>
                        <mxPoint x="480" y="1530" as="targetPoint"/>
                    </mxGeometry>
                </mxCell>
                <mxCell id="27" value="July 2022" style="text;html=1;strokeColor=none;fillColor=none;align=center;verticalAlign=middle;whiteSpace=wrap;rounded=0;fontSize=18;fontColor=#66FFFF;fontStyle=0" parent="1" vertex="1">
                    <mxGeometry x="50" y="1480" width="125" height="30" as="geometry"/>
                </mxCell>
                <mxCell id="28" value="" style="endArrow=none;html=1;rounded=1;shadow=0;sketch=0;fontSize=16;strokeWidth=3;jumpStyle=none;jumpSize=17;" parent="1" edge="1">
                    <mxGeometry width="50" height="50" relative="1" as="geometry">
                        <mxPoint x="240" y="1560" as="sourcePoint"/>
                        <mxPoint x="240" y="1540" as="targetPoint"/>
                    </mxGeometry>
                </mxCell>
                <mxCell id="29" value="VM&lt;span style=&quot;font-weight: normal&quot;&gt;, settled syntax&lt;/span&gt;" style="text;html=1;strokeColor=none;fillColor=none;align=center;verticalAlign=middle;whiteSpace=wrap;rounded=0;fontSize=16;fontStyle=1" parent="1" vertex="1">
                    <mxGeometry x="60" y="1577" width="115" height="56" as="geometry"/>
                </mxCell>
                <mxCell id="30" value="Generate LLVM IR" style="text;html=1;strokeColor=none;fillColor=none;align=center;verticalAlign=middle;whiteSpace=wrap;rounded=0;fontSize=16;fontStyle=0" parent="1" vertex="1">
                    <mxGeometry x="420" y="1586" width="115" height="56" as="geometry"/>
                </mxCell>
                <mxCell id="31" value="&lt;span style=&quot;font-size: 8px&quot;&gt;implement basic language constructs&lt;/span&gt;" style="endArrow=classic;startArrow=classic;html=1;fontSize=18;labelBackgroundColor=none;" parent="1" edge="1">
                    <mxGeometry y="-10" width="50" height="50" relative="1" as="geometry">
                        <mxPoint x="-230" y="1680" as="sourcePoint"/>
                        <mxPoint x="-70" y="1680" as="targetPoint"/>
                        <mxPoint as="offset"/>
                    </mxGeometry>
                </mxCell>
                <mxCell id="33" value="&lt;span style=&quot;font-size: 8px&quot;&gt;implement advanced language constructs&lt;/span&gt;" style="endArrow=classic;startArrow=classic;html=1;fontSize=18;labelBackgroundColor=none;" parent="1" edge="1">
                    <mxGeometry y="-10" width="50" height="50" relative="1" as="geometry">
                        <mxPoint x="-50" y="1680" as="sourcePoint"/>
                        <mxPoint x="110" y="1680" as="targetPoint"/>
                        <mxPoint as="offset"/>
                    </mxGeometry>
                </mxCell>
                <mxCell id="34" value="&lt;ul style=&quot;line-height: 1&quot;&gt;&lt;li&gt;loops (while, for, loop)&lt;/li&gt;&lt;li&gt;conditions&lt;/li&gt;&lt;li&gt;functions&lt;/li&gt;&lt;li&gt;classes&lt;/li&gt;&lt;/ul&gt;" style="text;html=1;strokeColor=none;fillColor=none;align=left;verticalAlign=middle;whiteSpace=wrap;rounded=0;fontSize=8;fontStyle=0" parent="1" vertex="1">
                    <mxGeometry x="-230" y="1720" width="160" height="90" as="geometry"/>
                </mxCell>
                <mxCell id="35" value="April 2022" style="text;html=1;strokeColor=none;fillColor=none;align=center;verticalAlign=middle;whiteSpace=wrap;rounded=0;fontSize=8;" parent="1" vertex="1">
                    <mxGeometry x="-90" y="1652" width="60" height="20" as="geometry"/>
                </mxCell>
                <mxCell id="36" value="&lt;ul style=&quot;line-height: 1&quot;&gt;&lt;li&gt;templates&lt;/li&gt;&lt;li&gt;lambdas&lt;/li&gt;&lt;li&gt;concepts&lt;/li&gt;&lt;li&gt;modules&lt;/li&gt;&lt;/ul&gt;" style="text;html=1;strokeColor=none;fillColor=none;align=left;verticalAlign=middle;whiteSpace=wrap;rounded=0;fontSize=8;fontStyle=0" parent="1" vertex="1">
                    <mxGeometry x="-50" y="1720" width="160" height="90" as="geometry"/>
                </mxCell>
                <mxCell id="37" value="&lt;span style=&quot;font-size: 8px ; line-height: 1.2&quot;&gt;implement basic standard library content&lt;br&gt;&lt;/span&gt;" style="endArrow=classic;startArrow=classic;html=1;fontSize=18;labelBackgroundColor=none;" parent="1" edge="1">
                    <mxGeometry y="-10" width="50" height="50" relative="1" as="geometry">
                        <mxPoint x="130" y="1680" as="sourcePoint"/>
                        <mxPoint x="290" y="1680" as="targetPoint"/>
                        <mxPoint as="offset"/>
                    </mxGeometry>
                </mxCell>
                <mxCell id="38" value="&lt;span style=&quot;font-size: 8px&quot;&gt;implement advanced standard library content&lt;/span&gt;" style="endArrow=classic;startArrow=classic;html=1;fontSize=18;labelBackgroundColor=none;" parent="1" edge="1">
                    <mxGeometry y="-10" width="50" height="50" relative="1" as="geometry">
                        <mxPoint x="310" y="1680" as="sourcePoint"/>
                        <mxPoint x="470" y="1680" as="targetPoint"/>
                        <mxPoint as="offset"/>
                    </mxGeometry>
                </mxCell>
                <mxCell id="39" value="&lt;ul style=&quot;line-height: 1&quot;&gt;&lt;li&gt;basic math functions&lt;br&gt;&lt;/li&gt;&lt;li&gt;i/o&lt;/li&gt;&lt;li&gt;most important containers (arrays, maps, etc)&lt;/li&gt;&lt;li&gt;file operations&lt;/li&gt;&lt;li&gt;most important algorithms&lt;/li&gt;&lt;li&gt;tbd...&lt;/li&gt;&lt;/ul&gt;" style="text;html=1;strokeColor=none;fillColor=none;align=left;verticalAlign=middle;whiteSpace=wrap;rounded=0;fontSize=8;fontStyle=0" parent="1" vertex="1">
                    <mxGeometry x="130" y="1720" width="160" height="120" as="geometry"/>
                </mxCell>
                <mxCell id="40" value="October 2022" style="text;html=1;strokeColor=none;fillColor=none;align=center;verticalAlign=middle;whiteSpace=wrap;rounded=0;fontSize=8;" parent="1" vertex="1">
                    <mxGeometry x="270" y="1652" width="60" height="20" as="geometry"/>
                </mxCell>
                <mxCell id="41" value="&lt;ul style=&quot;line-height: 1&quot;&gt;&lt;li&gt;advanced math functions&lt;/li&gt;&lt;li&gt;rest of containers&lt;/li&gt;&lt;li&gt;more type traits&lt;/li&gt;&lt;li&gt;maybe threads?&lt;/li&gt;&lt;li&gt;tbd...&lt;/li&gt;&lt;/ul&gt;" style="text;html=1;strokeColor=none;fillColor=none;align=left;verticalAlign=middle;whiteSpace=wrap;rounded=0;fontSize=8;fontStyle=0" parent="1" vertex="1">
                    <mxGeometry x="310" y="1720" width="160" height="120" as="geometry"/>
                </mxCell>
                <mxCell id="45" value="(port from C++ stdlib, but better)" style="text;html=1;strokeColor=none;fillColor=none;align=center;verticalAlign=middle;whiteSpace=wrap;rounded=0;fontSize=8;fontStyle=0" parent="1" vertex="1">
                    <mxGeometry x="220" y="1700" width="160" height="20" as="geometry"/>
                </mxCell>
                <mxCell id="48" value="" style="shape=image;verticalLabelPosition=bottom;labelBackgroundColor=#ffffff;verticalAlign=top;aspect=fixed;imageAspect=0;image=data:image/png,iVBORw0KGgoAAAANSUhEUgAAAzcAAAHaCAIAAACy9iD4AAAAAXNSR0IArs4c6QAAAARnQU1BAACxjwv8YQUAAAAJcEhZcwAADsMAAA7DAcdvqGQAAHw4SURBVHhe7d19UFRXgjf+VM3+9nl2n52pzM7ME/PGIr7RgLwKNDaNr2kFad8gqCSgJgjRjgpJeFF00GZa0RhiDBpFHUISIFGypEVF4kCxg8yGsOHBCkUqmqqpnar5Y6fmj8k8f2yef8bfOeee7r59+3b3behuDvD91PmDc/ty+/btpu+Xc+4597EIAAAAABAPUhoAAACAiJDSAAAAAESElAYAAAAgIqQ0AAAAABEhpQEAAACICCkNAAAAQERIaQAAAAAiQkoDAAAAEBFSGgAAAICIkNIAAAAARISUBgAAACAipDQAAAAAESGlAQAAAIgIKQ0AAABAREhpAAAAACJCSgMAAAAQEVIaAAAAgIiQ0gAAAABEhJQGAAAAICKkNAAAAAARIaUBAAAAiAgpDQAAAEBESGkAAAAAIkJKAwAAABARUhoAAACAiJDSAKbT9j3z+tsef2h/vMfCl8xYz3z8AXkhPx06/WRlCl8EAABTgZQGMF2ebb7+D4++eUwqD2186Yz19NAX/LU8uv/jnt18KQAATBpSmsv8zPqUXefjMtfxOkBI7f7Z9yTQfPHTZjNfMDscafoJDWq3njDwBQAAMElCprQFyZstdTbGEr7IVL+ieaLgykRBc3ccXzITbO4m+5xTupNXQ8x6Y3x8fLhlF6/6t6tlmPzC1WJeBTnb4yTNfN/yNK8GTpdb1XxzcPQ+eVPGx++PDt5srsrV8ccCF/Cb69UTD2n6/Fk9rwIAwCQJl9KijYUVR222+rrKKhrUwpjSdIu2f7qiqtuwfQ9fMCMgpc1c5f/8w1RS2vMNPaM0ng339di77D195EiPj4/2NDzPHw9UkFNa3//ezqsAADBJgqW0xG01JJodKstOmp+8g/4YxpQ2MyGlzVxSj+etJ3g1MLojnTSj9TWaHa1nOnNjH81pnUcm154WtJQ2pdcFAAAugqW0lLyyF1fERtIfw5bS4g6zjk5nOazsqFlUOlJwpTtxfceG5omC5hFDzrr5OZ86f+Yr8e10x0XuiK8a2sI6T/PO9qau9XgBkeboXb3rL/Cn29LQm/Kc4rqknaln1DYlW43tEt+CspxpXcTX0sqt44wYHex5r9zEHySKW4b4I57cE5hu+wn7IGvgGb8/3HO13OQ1pRU3fU7XG/28yUeCKz7XR1ca6WtSjw46c2VzD38+z93mEoobOqV2JuL+cN8nDcXJ/CFJ8VX6qL1esfNVzvgjIUep5c6ws3tx+E7LVLoXqSmlGelNsVt5VWK1k2VDLa5DWk8XeLy0yb25mml7XXmnWFPgyOQb/wAAZj1xRw+ELaUteaF7RRUrR4bySMpRT2n9aw8Prarqp+HsbLexqn+F9POFT2P4WlJK6zW+NpZ3updsbZVtJJ9srXkoVc9XYNbFHR4jWSr/HNla94rDQ5tYCFtbmMcfp6SURp5iLP+MbFNXxozreSyYv7GV77ONxjXpGXnZVz9fWkkjXRVrlBkfH6QdZ/YuR9dZl9Vx9bfZ+j5ZTgt7aHTwJq+S0nLclR0Nx+18S3fIQ3Q7fZ2d6imNpTfGR+ONK0CoxgVTPXs6Erzo/vQMsvw0esMqD2q6kpZBunh8mO6SvUfa4EhnlSxfSSmtr8s+ShIMeVE3+4alTcnX2tXMtyPvXhwfbJ5Ky9PUU5o8kFEeC1lK6+nsHL0/KH9pg5edq2h9cwOg6XX5eXMBAIBASpPRt+Z4TWljGSvZz6+Qn0fSM5w/9yfF058JqU1uw6vlvB6hm5/fS2JfvnyDOZ/SJcffns/aC6n4t9dIac+5hKc0+aYi5m+lmyo4/rZrLYm2Hs+FMQlJyUkJMQt5Xe44PZG7dZPpSho/ISfp5iq3fEn57BSTzrvDbXsT+AKdufGOt9Pw1NvSpHDZ1+hs0NKZG26SRaOdtc6Xktc8QJ+/rcKxSxEJ5e00jAy+54rFUkobH2ord7axmaRLvvoas6S6jr3w0Z4TrgRoOsFWuWGV5T2HRexwx6sebpcjl3786Jsf/eH0s7yuImrx0sTk5MS4xVF8gUsAKU3+0nS50kuze+63th5PH7vk9OT4/ccejTze6jPj+WsoBQAApDQ5XyltRGoS8/YzwVLaUOoyXmXYuFFZFyT7lYkVubwqiasiv+jajiOlKTZVbbwwUdDo0ZupJaXpUgxZRiMthhTPTCGltHZXIvTB54mcdbcNNrtdM842HpLGEqk1rsu9x29XQ6dbC5DaLr3AWsVuuH5RSmmDl93WYhlwuKVEqrH0M9pZJdU4tooyJxHkcEtH22hY5nG42bhOXkZ+PH766Wz+gJqE9EzpjTOmO2OmQwApTfHSrF1kmcqbqCml+dolF8P2J8Z/+z9drxTjPQEAJgUpTSYIKU0xiwfLW8qUJg9klMdCx3VpvCoxx+3rXlF1fgmvOmhJaXGp/MyalZnqOctIllXqpxy+09nS2NBQXWJe4/X86z+lydIPFbrRA5q2rLZLHgsd16XxqsR8vMXeZW/aK9WklMY6DV2FXRGnktJiUzOlo23MTI3ly5wsv3hop3caeGj/yffjP3o0+vjHnlfSOSXppe0Ys/RJfJFTAClN8dLY651sSvO1Sy71V//p0Td/98PAT/iL/eCJ/fwRAAAIAFKajNApzQtNPZ5RsUmp6RnpqUmxqt1Uum2y6+slwz1NJSpdeXMnpblj6UeVSkojhzsxNV2fnpaofrid9rDrt7rm8aqKJUuXpekz0lLileF82lKar11yyPrffyCvqwez2gIATBVSmsysTWkaJazaZN5+0NrUxRKbsoOPmtMpTS2QTUm4Rg8ENaVpMKXXBQAALkhpMmJdlxb+lOaka7ipfsL2n9Jm7HVpGtrSFNNeTNnUU5q2mTiCeV2aFhpfV/Iq8yYzKavcJ0YBAAAnpDSZIKS0CXO5bIxnYX/+5Md4aktpKzs2XZnYJBsNGqiSy4OjI6P2U7LLo3Tb2dDIweYX+AKn8vbR8fHRtoO86k7KDbIBlTpz4+dkiWpKC9IYz9GeBs8xnpV8QUBjPH2mNGmMp3wK2Qhd7pGWLrv9vapUviBwLM388PFTvBoYbbPaspRGDoBsjCdbSW2Mp883NxBSj6e/lGZuYjsy3tPAB9ICAICSYClNv7mstEwqliorSWm1r/FqkcnjQuygiK9Pd840Js2XdrbfMfcYv1Q/kJRGJznj86WdGPM1X9rZftl8aWNrCjznS9OW0iKrjU00HW447ngVL1j4Qxo939TH5tCSZgJzzpc2/nmj53XtumoWDaR5xVhxXF9POedLY5OT0e0MdtnJxlRSmtQSxtb13ngjxT62klprXEDzpbEp3BzzpZHUIssoGlIa2WG3+dLsd6TaaGe1R9jRbor38XTcIWp0gE3hNiBV7G6vn6U0NhWcNF8an9pWNl+ai+83NxBa7uPJg++k75QAADAXCJbS1llIMlNVsyM0/SJS+5l64TkpkJTGbxiQR7MXnWw2ZSr3HuBVf5adMp6eYNPesuLRFuiXx70H6AT929VPnmwWe+eaynBDHnWMQ5DmuPd69ZiA9x7gVW+U9x7o62wo9jEZhQY1bFaOrnmTvsre/93W+XVpsneNxDW1o8T4fnM1K/j5n8jrGviFz3Gd0nR3w22TDIIAAHOCuD2eM47a6AEA73RPfTXymHPGip4A20A1URs9EDLPfPyBY4aRb370pwvP8MWqDrbRkDbQLG9DBgAABaS0oEFKg0AZzE8Off6PP4zTqV8f2vjCYAprSnt66AvyQn70aPSfHvqerTciYvtl2mXccwqTdQAA+IKUFjRIaSCcsKY07Qx0WAkuSQMA8AcpDQAAAEBESGkAAAAAIkJKAwAAABARUhoAAACAiJDSAAAAAESElAYAAAAgIqQ0AAAAABEhpQGAm+175vW3PR6q2yEAQHA81WMnf6f/3F/ztJcb+sFsgJQGAE7PNl//B3p3UVZCcjsEAAiOJx46/lQfjfy0OYsvhVkGKc1lfmZ9yq7zcZke90cHmCN2/+x78o3/xU+bzXwBAAhN90zzx/9Igtr3LU/zJTC7iJfSFiRn766oPWaj6q11lZa8rFj+UGjVr2ieKLgyUdA8o+7ytLmb7HNO6U5eDTHrjfHx8eGWXbzq366WYfILV4t5FQLC7u8U1qNne3wqX/fs46HmhpWvMQXFV+lHKYDPXuh57FJxyxB/xU7DfZ0NxQn88VmP/b2rctymTHmIZt6Xg7+/Sl1uVfPNwdH77OXdHx282VyV66U/Ure9ocuxJjPJoyH9c3XrCV6F2UWwlBZtstTReGatOlBWWlZ2sMZaT2p1lnXRfIUQ0i3a/umKqm7D9j18wYyAlDaLhT+llf/zD1NIafvO2e1dtPQMjpI9Hx3skar2c/v4GlMwc1LacJ/0qkm5I4WWwZaSuXHdkJTShvv4y5eVpr3SGmbr+46FJMqE+eMdFL7/Kp9v6KGffXIM6Ie/p499AEZ7Gp7nj8vt+5A9OuT4M+mytxyfVCM2S2k/fPwUr8LsIlZKy9xNM1rNjlReJ5YV1pBFtUV6Xgd3SGmzWPhTWpD+KWfxJch7PnNSml3ecphQ0UaPxUBzHl8wq0kpTWPT6Qz9cvD1V6k70kkzWl+j2ZHKdebGPrJktPOIR043N9FHehqmHuCn1gQOghMqpcXnldfVHS1ZHcnrTDKLaZV5Iev2jDvMOjqd5TBvmndaVDpScKU7cX3HhuaJguYRQ866+TmfOn/mK/HtdMdF7oivGtrCOk/zzvamrvW4yi3SHL2rd/0F/nRbGnpTnlP8/7Qz9YzapmSrsV3iW1CWM62L+FpauTXRE6ODPe+Vm/iDhEo/jpP7t5Vu+wk7a0YZH78/3HO13OT1i7i46XPW3PJ5k48v6eJzfXSlkb4m9XOzzlzZLDXbUMrd5hKKGzql/2iJ+8N9nzQUJ/OHGPbqhlqKTeUtvOWD/B/cdsSzkyK5uOGTvmHHUaI9Wds81tGZq672DDv3aKinpdL5fc04DoipoqVHerb7o4NdDfIhWlLEUUf2k69FuL98dgCaKzwPQCDCkNLYSc5ezz4q0sEk+924T9kpKO8MGu5pqTCppjTy5jo+cPxIur25JqudPjjs1pS1q3mQLBu1W+WHyu8bR/jfJZWUFhFRohLd3D6To4M3W44oPksaj1LyvkbnX+6kj1IQBTWl+dlteoiGW+qb+kbIw6N9TSUJJa6f3Y7mZP4qh/s+PCJfSdtfpeoHwErfS7e/XInqypOiKaXlNdykh2D0ZsOc+IdhFhF/9ICU0izZbtEtmJa80L2iipUjQ3kk5aintP61h4dWVfXTcHa221jVv0L6+cKnMXwtKaX1Gl8byzvdS7a2yjaST7bWPJTq1gy4Lu7wGMlS+efI1rpXHB7axELY2kL5H46U0shTjOWfkW3qyphxPf/amL+xle+zjcY16Rl52Vc/X1pJI10V+/dvfJz3Tzka6busBr6Gq5OCPUROKrxKiryJ3nCcnRPJlu6Qh+h2+jo7pa8/voaT9G1OKc8oMq50qPpVbqpnT0e+T+n+9Egns9Eb7iffkhZ6SiZboLtk75E2ONJZ5fr+lVJaZ2efo5NCWmdUvo5sQ+wo8WOk7MkqZud/8mR9PeTg3OSRbvCybOel8wF5NsVuu452hPl4i3RsHYfb1SFif9/qPNy6asf7xl6a4+lG7cedWwpcuFJaT2fn6P1BdpT4ebivSf4nYLB2scV8HfLS+EdJ/mlx/7zZe6SDT+KXbLAbP0quN0p6j0Y7qwN84zTtkqaUxj+3rt3mtWb5H4Kmo+TY7SkfpaAJXkrzv9sspfV9Tl67dAh77J+Qt0/6ua9pE19L05vr8VcprSP/DtD2Vyl9mSgCmWLhvib+i9KuyvrHJ93jqSWlafrKBREJn9IW5h6gnaCFIfrfz42+NcdrShvLWMl+foX8PJKe4fy5Pyme/kxIbXIbXi3n9Qjd/PxeEvvy5RvM+ZQuOf72fGfojH97jZT2XDFUSmnyTUXM30o3VXD8bWVY1dbjuTAmISk5KSFmIa/LHafnA7cGeV1J4yfkK6O5yqOb2WePp3SKGm7b6/iHX2duvMO+FVS+iKfeliaFy75GZ6OXzsz+WRztrHW+lLzmAfr8bRXONoiE8nb6ZTX4nvNsJ+32eE+j8z9nk/RPZ1+T6xtT6pwYbi93bWivsidLx86s5F9VV0w0SRep2K3OPZK+K+/3uHY7eV8bO24qR5Vt0NtpzNpFn032Yun71km+69+rkl0x4LCIfQLiVT8BLkcu/fjRNz/6w+lneV1F1OKlicnJiXGLo/gCNX5T2vhQW7njT5oEYLo2OSXyBY6jNNS2z7lObmMPPXF6RiJ5O5mu5H3P5+ULB6/S9Yov0zM2eR9dR42sof2N07RL7s1myh7PvKY7o6MjdtcHgDzbGalTzHUAtBwlXa0igJJdamDRZhJHKRA+PkvSUQpCStOw2+wQ9Z2h/5PoTvSQn3tO0JXZzySFs3VIVfubK/+r5OvI054D26Cv3faT0ljTmhcqm41aHOf3D27zL/5E/rka+PmRFL5AjaavXBCQ6ClNX1RLQtoBcxhGD/hOaSNSk5i3nwmW0oZSl/Eqw8aNyrog2a9MrMjlVUlcFflF13YcKU2xqWrjhYmCRo/eTC0pTZdiyDIaaTGkOL+YnKSU1u5KhD74TGns22eweTuvMmzjkz8f+CB9sXa5nw92NZCYIvt/VG2XXmD/WrtOJI4zq/zIsAYY+VmTvfDB5hd4lTFUXSZZtsl5YTyLJq7Tg4RlSdkRU9vt7Sw6OAbByfg6H/CU1naQV30inwDpA2A0LPP4BLB/xHkZ+fH46aez+QNqEtIzpc+SMV3Z+ybjN6W5PyRlYNkZka0zeNntfWOvV/7ZY2+uPEoTm9iWFCmBt4MONteyR4dkp35G0xunaZd4tpCNHuDNOG0HPf/wZHQNNGXId1vDUZIOshRNnCZ/lLTy+VmSPt6eVJ/LV0rTsNvsEPG/Gm8/B/RXecPtO4Cto/xFSuWtcdKS0pwc3zy8qo78wUlHO9PXH1zEztd//vCLv3P9IWO85ywidEqLzaYjPq2W7LBktKCkNMUsHixvKVOaPJBRHgsd16XxqsQct697RdX5JbzqoCWlxaXyM2tWZqrnLCNZ0rU748N3OlsaGxqqS8xrvH4d+E9piq9jX1/EU6Npy2q7pFyo9h3q+NbmVf7C/XyfSucDeXcwKaxXQ3k+UO62+3nFxdf5wNEldH+455OWxhMNVaXmVV4bnGNTM/mZNTPV4wJPyy8e0hnMSfnJ9+M/ejT6+MfyPmOFJL20HWOWPokvUuE3pSlerPJzpbYO26ZH/lAOJ2TdUcp33JHTKJXhlpreOE27JJ133YwOqMzEocvdZ21qkz2dx25rOErSQQ7iUdLG52dJ+sPxHOOpOsjX15+wht2WHyJvP2t8c9X2RPXwUmz7XnY7+CktKYMfbWOGjz+4Zz+2/89H3/x/338u/SE//rAJ4z1nD3FTWrz5AB3wWVWYGrIr0pSETmleaOrxjIpNSk3PSE9NilVtNddtk13LLBnuUVyAK0FK80H6Wlfj53ygekqmfJ0PCN32Ex7v2x3V9418AhJT0/XpaYnqnwCnPey6tK55vKpiydJlafqMtJR45f8LctKhUN9ztRc7+ZSmSvmOE6bGz9lDnzd6RlBNb5ymXXI77+axpp/hD5UBxXldmpJ8tzUcJWm3g3qUNPH1WfL4w/HF15+wht2WHyJvP2t8c9X2RPXwUmz7XnY7+CktInppSppen5ay1EdbhTSBzgdIZrOTkCktMnb1y7Sj01ZZqF/Al4XDrE1pGiWs2mTeftDa1MW+19wuk+GQ0nzwOEGqUd1ttVMy5et8IJO8yrxpe/nxJjv90h8f/cTzfdMsfGM8eU0y+ZSmfHPVmU7Qq4yGh8kWRntOKHOapjdO0y65n3f5tAw9DfLr9LNY5yYdhmiQxWmP16LhKEkHWVOPp7ajFAQefzi++PoT1rDb8kPk7WeNb67ankiHV/EWUGz7XnY7BClNC8zEMauJl9IW6AsraUKrfXl1bNha0SRiXZcW/pTmpGu4Sb+IPL/a/Ke0GXpdmqaUpuW6tHH7cV5Vp7bbk7suTYV0eZPK+UAzkVKapuvSFG+uKhOfsaoqmY84aXKfYlTTG6dpl5Tn3bz36Dvr1pzGPgDKy0Cz2B7KQ4mGo6Rt9IDmoxQUHn84vrCVvXy8Ney2/BB5+zmQv0rFnkw+pSmDF3stAqS0hDVm8yZSVvm6wA3EI1hKS8y1HCUJra4iT2WYWsgFIaVNmMtlYzwL+/MnP8ZTW0pb2bHpysQm2WjQQJVcHhwdGbWfkjUw6LazoZGKUEKVt5OTgLcr1qUvHdmASp1Z6mZS+0YL0hjP0Z4GzzGelXxBAGM8/aU0PsbzQ9eEVXyMp+wCZ2k02fjnja5plnTmI1dJkpONlpW2LB+amlzONiQ/szocbKOvR31gR0nzAB0qKBu6FqGTAuhUTskspU19EvOppjTpKA3LRjjmshyjEonkby55U+go17ZT8gPgNvWGY2KOZvmeBfDGadol2XlXajmTN6dJ75G841VnrmqnywJNaY6XpmVyEL9HSWLg/cKTnoPX4w/HF8fKzqMuo2G35YfI28+BvLlaU5qvv8qAZrX1+LRMmqZbhkjfYePjdxqmMFUPTAOhUpo0NZqtrtJCbw/lVopMIZrVNr4+3TnTmDRf2tl+x9xj/FL9QFIaneSMz5d2YszXfGln+2XzpY2tKZB/KwaS0iKrjU00HW447ngVL1j4Qxo939THJgeSZguT5jmj1K7g4Se5+8P0rMCK48YvlHOKIzY5Gd3OYJfd8+uPkr6g2bqyM4qC9C3GVvLcgvP6Hm3zpfFZl6QNknOt6yuTPYu/lCbbkOb50py79Ils5jXpfHDDPqiYmUk2X5qLYyo7abI3WmRXYeedY1+6fDuuiaD6zni+b5pNretE0x2iNOUP5+Rk7JNGX9qg/QY9cvJPi3JKLelNuS9vKtOVXKVvyahr4iu+ZWliDgcNb5ymXVI570p3AZI1p0mXqzmei71ro51N9BcDTmnkK7PY79y/Go6Sg461+pBQeWqy53HpD8fXHaLk9rH/T2Qfb9lq/nfbWzJTHjrNf5UaU5rPv0rnHaJGB9gXxYBUcZ9CmQteStPSBM7fXLe5e2BGEDGlqakp9DUTzBRI7WfqheekQFIav2FAHs1edLLZlKnce4BX/Vl2ynh6gk17y4pHW6BfHvceoBP0y2fDl5FNhs64f4vJrmefcfce4FXGM6URk7n3QF/nKfcBfo4D4jbLudejTQd22KVzjMRtlzzuPUCe7oS3LWlTw2bl6Jo3ubM0ixFqJpE/dNtdR1v7rPrud7bm0VqW0Sg+qNk9Yft94wj/u6R23iX/BdFf6HP90yOPVvTPpMqsY784iaPkgSWIwI6Si/Q/mOJwBUT6w1GjEnfIEc090ub822Tkq/nZba0pTcObG1BKI9vz9Vfp/nXq42gHL6UZjvI/W15XJb25w22yRAkzg5CjB2YmtdEDAO68xlYx6J76auSxR9/83Q8DP3lof7wnwGZZmGb8jljuk/9pxq5nkF8MAIJ7qsf++MOeH/8wTv5m/8d4DV+qCm/uzIWUFjRIaeCf4CmN/F9ufnLo839k3/uPPbTxhSAq193bnF3e7p252knXLbmPSAWhPfHwG/Y/1Rc/Gap6xmf793bW7Ys3d0ZCSgsapDTwT/iUBjOK1GvGTanLm40zVbvIHWY+vLkzGVIaAAAAgIiQ0gAAAABEhJQGAAAAICKkNAAAAAARIaUBAAAAiAgpDQAAAEBESGkAAAAAIkJKAwAAABARUhoAAACAiJDSAAAAAEQkWEpbZ7Gp2mviKwAAAADMDYKlNP3mstIyt7K/xoqUBgAAAHOP0D2e8/WFlfU221FLbiJfAgAAADBHiJvSoleX1JKIVlmUGc2XAAAAAMwdgqa02OyyunpbnSU3PpIvAQAAAJhTxExpJjqIoK7S8mKeyRA7ny8EAAAAmEMETmlONbtXo9MTAAAA5hihRw9ELEzNLq2lQe31vHi+CAAAAGBOEDulUdGby2l7WmEKrwMAAADMBeKntIjkHTUkplnW8SoAAADAXCBUSovO3VtXd7QseyGvS1a8bLXZrCUreRUAAABgLhCrLS0+v5KNFpBNkbassKbeZjtWshpTcgAAAMBcIliPZ2RqYRUdLWCrrbCUlpUdrLGSiGars6zDIE8AAACYW8S7Li0yfvWLB2qPsaxWb62rtORlxfKHAAAAAOaMGTB6AAAAAGAOQkoDAAAAEBFSGgAAAICIkNIAAAAARISUBgAAACAipDQAAAAAESGlAQAAAIgIKQ0AAABAREhpAAAAACJCSgMAAAAQEVIaAAAAgIiQ0gAAAABEhJQGAAAAICKxU1rKtpp6m62qMDWSLwiduMMTBVdGUvW8Om30rTlXyJ44SzB2Sdrm4XpenT4xn3y2cdh7+WQPXy9o1ibf9XgWVtaeX8tXmbw9y8mmgr/PU+GxS0fPKl64+d7VzLMF83X8cQAAEJnIKS15W5XNVl9TuIzXQ0qUlBZfn17VvYKVVafHZllKW/zm6eXtvGT2XiehYUNvk3PJ8jfNfL2gWR5zkW98ZT/NKKabvJpSu5yvMnkzJqXJDnLTygF6HHI+2TOfrwEAAOISN6UlF9TYbLaaHam8HmKipDSZRaUjMz+lJeRVt/S1W3lNZuH5D0hcCEabliZSM97yo7waDDMmpbkdZF1qgp0ciusZlVF8iYCOt/VdrcpL5jUAgDlL1JQWpr7OnalnnH2LypJTupOvJUk9ZWwYy2umD+VfHFtfdWrRQv4ItbmbJqrN59eemyhoHlu7c09EhuxnJ7raxIrNugVbu9dfkDY1sqa0XLVhw19K081/7vKqhrF8trdkO6byt5fE8Mco9lxeSnccX4mJNEeX9m5g+0PKlsbe1Oem3qxF81nP8Dh1Y5Iprfhc3yj59ZG+pl18yaT5SGnsobMxuqy49g82sG7BnN6zCXuW8Icd5r961Nh/3UxW+N311e17onRqKU2XuuR803P36Ebodu42JR+U/5sRRV412cKG6/KmrLiYdtqsuPb8er5AUrg3o/e6tD9m+ox7FybxR5z875JnSiOONSkXkt0+e3a1Y7c39F9KazC7fyZZ3/HdowvXFCT/awd9xuHrppvHY7IVUS9qfs3xlVM9SiSl2enH5v5wD7IaAMxtYqY03te5LYXXQ8Yct493L5rOkoAylnOEV0lJ3+hKKpG53VtIgmmeyDlOH1pzeoJmo6buuMV8BSmlmaxDa6p61zeRNXtXlPevkn6+0p8Uz9eSktOq1z7ddJGs2b3icL+Zxb6cl9wTIeMzpekWlQ7RfWgeMR0mu9RL9l+5S1nn+Ws5MpRHHjrbz6u0nJdlkJ2pp+k+5J8lO+xnl7SR5bP7g/bGfWa1q6A0pLTiliG2kfHx4avFfNlk+UtpTRkfdUg9g5m3pRRyNWErX4F6sWYtixSmm3QdY+/19R+dzlTmj7XJvXQdc/+lzPbTy69fMv2OVte+K3+NyxNukoXXlx/lmetfas/mkF+5+bo870gLyWpr/5X2VJKno7t072xMJl+B0rJLWlKabr3qbue07/wXvgYhpbTTGTdJOGNPJ13wd+90tOzNdez21I+Szvxqo32QvffIagAwh4mY0lJ3sL7OgrB+Mfvs8ZSa3EbSM5xnJN2iV0iEkrW3sfi1ZruB/ry1l/y8aitbmf48ZnS2krDV8hs7op3tcPGnVl0gYas7zqPV0GdKq844O7apQbadCN2SV+kumXZ6NIP57vHc3E3iXd6RU662kxivuxQRtTguMTk5MW6xeneZez47VWLwfpV60NrS/OwS5y+lffbcrwt4PSJq4UW6bxs+eoEviIhi61zPtDqbfJYs+TVtFVNEIrLErZ1szZ5M2mJ0NkZ+HKSFJHKtiYjI3LmcrnBpKfnZRRr08EHKTudL4rskO1xad0l5kD17PCtOmAY6Vl92vnyyzpY0ehnf1YRcvsCxS58ZG5xPlxR3nTYBrnzLeYXf8sTbdMvOAEp2afHFyR4lClkNAOY68VLaskLW17nN8YVsstDIVhjq72efKa1+BUk5J8679QHFnzfJow+LXys2+/yZYNWcl3bwKhNXpf7UAV+XltG6wbOjlvCZ0tizyHIkE/Oa+sCFhPRMY5aRlMz0BL7IpapNymcjg50+85kkWNel+dwlF38p7YPkF3mVyn19JckWN193vONSRjkr70+O2MaasmT5g72i6xkVvCqJ/ohEGfeNR0TMP0rbnHLa98TQR69nHlP0ZbJeQtezM9IuuZ5O0y5JKc1t9AAbRZHzr3t9ZtoIFgrlu+14OvnbWnF6g1uWZbt996j8QoCpHCUHnaGkwZnV2ir5UgCAuUCwlBaZWkj7OivznF2E4qQ0tx5DUvrNk01prirjLY35T2mp1Umln7p2ifVsTi6lybt6SfE2vDQpg+YhWjI8LpKKsNrHx4dvNlXl+gtoTLBSms9dcvGX0tzjjjJwsIyiyB8el+pL+WPtdSkP8cKGsnrmj6SYT2hDlJkEJpXhlmzL/Zfk21nefsnk9nSadklKae6lQ20mjiULKw4mt7qezmO31Z7uxaPuCUwtpU3pKMnoVpW/RxtW7V5ahAEAZiWxUlrspgoSySrzXRlNoJSmWqYtpekWvcSuS/Mok0ppyo2wovbU0UtT0vT6tJSl0XyBTHHDTakxbXy4q3Gfv6wWrJTmc5dcwpXSnGFIXtTyx6sn1tOHOtJe9WzVYltWLZNKafwg617IoB2LTUvlF7cRuvXJtKfSs4QupSmeSCpeUprOvK/RPniffbCGehqmPI4EAGAGESulJbMr0mpfKysrdZaKWkFSmpeUw4U5pWV10Ja8Mx0xibJuPpbGJpXSvL3wgOlyq5qdWe1ms492taClNG3CldJ8Ngg56dankA3e6zCR2EQ2qzxIHmFLReApLSIi6uxVUjVddrtycfHlDrrOr1+IkrVFeryWyaY09R5PjUfJXPVez7AjnzVXqo5CAQCYzURMaSpESGmnLy/gVTWBpLQgXJfGtsMHKzit7Ng02ba0Fa7rxINAmdW2qlwxNvNSmmId9fzx2fJaXvUuavGvaTBa+dbyqLeu0k5P16VdEvbsvTU+Lx3TtEuKlKbanMZe/iVFAxvbw0BTmqbRA5qOUnIe8hkAACHe6AGlMPV4Lnl1rODKWMZKXnXHx3ga1srSRtbbhqpuQ74jbwWS0grOysd4vr2m2ccYT/K7ameoXDowc1N5Oa8SC3cmHaFzp6mktMVvryFPevxt9bnn2BjP/ONvz3c+HGmOK+1eUXVZNoB0MlxZbUbMl8ZrEkVKkwZUykc4LlnCkpYiEpFEYrYfdF31pUuNOX96eXvNkjS+gHCfesMxMUetfAI7KYF1pL0qmy9lz8G09tNpVufh0rpLZIn8IEstZ/LmtJh26blkmbDw9Ux6i4JAU5q2mTi0HKV6Nl8a8hkAzHlIaQ7rP2Uzoo3QacxYScrijxCK+dJW2UboNWHN/UnOVoNAUhp5Csd8aUObfExOJnVrynbJNc9ZZLWRzsQ2kXe6ly4/PrSlecK08/IK1ZQWkZd0gq686QRbmZR99bIr1t3nS6vqzbnIVi6v5o9PDclqLeeqeEVGQ0qb+nxpmu4QpSGlkUTCmqmGP1t/25E/2s8aFfmDRBn5TGDtTWvZTGDrW2VNZWv2sKk3ZJOxSVuWJuZwUMyXlnmTTeH2u0uqU7j52iWPlBaRuZeuI29Oqzgtfy6yHTPZvbPkFwNOaSQ7zj/od+5fDUepsqkF+QwAAClNht4PQAooUnFFK4ni3gOHL0fHy84jgaQ06d4D0nPlXxxatUv93gNkl+bndrDpdp1Fds+A+OrUX47w/bkwZMwn4Yz2zKqlNJJEysnKrtEGZ1oX8QcY5b0H+g10a6EVlrY0qVFKpcifV1NKoxP912RKs8uSQKN1Vv1LstYvgg/tlM0xRi18l3YLKgd7Ku49cL1miXKifw275JnSIqLYtBefmX69hS+QRyuyG72n4wqXsF+cRErzoJxAhPFzlAAAgBM/pc0uitAGMJvxO2L5zuIAAOANUlp4IaXB7Lbn9eWsT9nRearszAUAAO2Q0sILKQ1mN9bHKhXeUYuIBgAwWUhpAAAAACJCSgMAAAAQEVIaAAAAgIiQ0gAAAABEhJQGAAAAICKkNAAAAAARIaUBAAAAiAgpDWaLlKc/bnn8+655vAoAEES7f/6HgZ/27H/GwOsA4YCUBrPB/rqffj/+2KNvHntkR0oDgBB48ed/It8w3/zoh76fv5nClwGEGlLazLduw8lL5ZdsG9bz+pyz0/b4D+Tbc/QnPXuexb+5ABAqKc+0tv0T/W/wdz+r1/FlACElWEpLKayxqdlr4iuE0Lro0l7zxYmCK45yuJ4/IraTt6599x0td2x8ydSd7CUbfPMkrwVZzMb8lrsXJ75lu/1t+5d33zi8MYo/phBjfOuWY01Wxj5czR9yKvgF/Qf3/uMfh+wzEndY9qnQ8sGI3BFfNbSl2fUrOaU7+UPBE/MJvxGTs+T0nk08mMofnoykJeebTL+TbfOTPfwRDTz3x60EsqmwOvngynd/k5UHm/gDYnvx6FrFEXYrHyS/yFcMmnr7uLrhll1shV0tw3yJxLF8BmGvcfhqMa96Ud/yv0hQ+6FrHv4nhDAQLKUtL6qz2axVlrLSMreyWc9XCJnIgt78KxP554ZWVXWvkMoLFv6Y2GLKLDdunbjTZSmL4UumLoQpbVtp/wTLW/fevnPrRP+9Vhq/Jt5+axt/XG7/x+zRr+iaUmmzZfDHHFq7/v7RN38/fpRXQ2HJC46PRFW/WUNKW7JvhCSz/DO9jt/qTt9o5o8FD0tF19de57c2X3796np6er6+/GgSXyNA/2JtMg9/Zh64mum4XfryNwPY7cVvOn6r/XRm73WSFTb0NjmXBLSpsNp/u+bWA6n8amzmpLTcnSnOY9t+yUTf+o6VriXHY3L5ikHDEszoYI+9y+5eWqzSIdtkbXEs7BkcncUpLSLimf7fPvbom3/qL+B1gNARLKWts9hstpodybwaRjGvjRVcGUlXZoA5KmQpLepYdzsJXoPvLnNEyqhN7zaRJRPd2z1CZsale2Q33n7LV/qc9/Cbxx6N/PObvBpq9Sv8pzRz0omJgiu98ZG8HiIspbk3mWQfNJKz9b3T0ZPqi4n+iESrD1ICaPVLyKtu6Wu38prMwvMfkJS29vxaXpcpfq/HfqrEIGRv0abemZPS3OxZTlPa2eD9m6ZGa4Khiq8Oz+qUFrH99E8effPY91ef5nWAkEFK41iv1kiqepvdztQz5NHuOF5lNncrerLYFrrjWG9XHuvt2tLQm5SVwB92SViU/6np7EQ+6wvLO9tv2LqDPxKQk2/SdiZXUQlVPGzRfsOr0moTX7757v4l/GGndflt/azViq5w4q3CKLWUtmT3Wye+/JpmLFq+vnjnrdWJ/CEqpuzQl2T5xNtvreNLiEzbmxNk4ZeHHO18q9u+8txy0R2yzleHdvOqk+rK7nb/7HuS0nyN63Q72gXNE2bbp/HLPDJCfHXqL0d4H2Xz2IZftkbHq+YILSlN7dPiwVDdNnx/fPz+cFv1JLtNVFJaRFTcdY+FutQl55ueu0eW05JztynZS6+o2ga9ofmsR+rfuhFYStt+eZD+1v3B8GW1jZde6f/LxW9Zh+a3/322/55po/ox95fSstPeetDwNdvOd3+7+PVfat46Iu+qT/vwL+TXC2r/4wx5rm//Ul63M6bua+fPfCWX4qbPR8mRGP28SVPw8UVDSsuqahuiB364vcr7B87nLgU1pSUUN9hpextzf3Swq6FY/q1Pn2u4pb6pb4Q8PNrXVJJQ4vrZ7VOjM1dd7Rl2bGl0qKel0uy2AuuHJbttqnB8Yu8P9314RL4S21svhlrUX/BmdqHFrSd4FSBk5nhKM8ft431S5ERecGUs5wiv0uLq8dSe0nqNr43lnaZdXatOjNFk0Nyf5NYBpVtUOkS7Vi8OrSFPcbjfzJJBTmngV+3sL3f0A779Je1D9JbS3r7R3frdl6x78d+lKHbxklv34uqWL8nCa9+NNfWTrfVf/e7rEzfuKjYYe/IWy2ffXqXrkGdk14pN3CrK5CtQz1+6SBf2vsTHMawoukN3TP50LHgpA5li4YZLbq+rdZBXaVH2eNoep//Rtnj9j3bBzn72LoyYDrP39DgL0M1DbnFcfzmHvQtmG3vjbCPsV9zX4XykNEsS/+T05lwgWxsx8Sotnj2e1hv8LKCacrTQltLWJvfScGbuv0T7Ma9fki47W/uuMz8tj7nIu8lW9pOHZF2opKh0U8ryGUlajfvcT4mcj5RGT9DH21xbCHVWe/neGRaqzt6jfZpH7v03y1h/KXmZPy7nM6Vtz7nFfvfbvxyj3aP/SePXd39rutWxmK8gpbT/+tXd/zpy6z/PkjXH6Gqk0J8nvlZeNum6imvqbU4aUhrLWIzd6wfO9y4FL6UZjtulWDV4R+oeZZVRuzWLryCltL7PB3u6WN/peI/9kz7Hz31NrneouFn63WHyqN1+s4/+50M2e1m2k1JK6+zsI+HsJnm6Hmmd0c4q5+fOfLyF99720QPg1qv7vtVLV/0TtBX/i5/5u0YVYKrETGmZmTsO1FrJjzabtfbAjhWxoeo8kuKXl+I6GWtPaRMbXi3ndRLIXqHXJ+W9Vs0XEPHnTWTLZzuiF/IFEQst6XTjQymeVxNFLY5LTE5OjFvs5dp6B69tTiylXRvrzHc0ekWVtdNGtYnu7XwBOdmzNrmJu6WbHN/xiZVHx2iYk23w5UN0yVfOJjHyayb2pFfb3M52iW/dJWGu/c5J8oQ82A2+I29x05LSXqJNa16KcvSAn5S2I/W08tjOz2klscmQ72y/1LE3bmzVVlcb4PytvXkkSaukMR8pjT3kpXiOHtDWlha1eKnXT4CmHs+jZ83Dn224vmc+r0dErNmTSdvVzsbwddYm36W5Tb24XfLvns98piufKU0SxKzm4ygZWPD625E3Xcc/5s3/vEhiU28Hr8v4SmlS2vvq3nLXn4D1la9o4HvF8SfAUtp/W16jPy9vJz//5ZUy58//tXMr/VlGW1vaopiEpOSk+BjnF4aamdWWVtxC92S4xdUopit5n34UXBtnz9V3hu6p7kQP+bnnBF2Z/Tza6fhC1bHVRm82uBKwqaGHvgK71bltKXre72nMdSzi68jTnkMArxEpDcJExJRmrauz1lZYSsvK9lbU1tOoVle62ueXVBAEqcfTfQtSJjtx3nWOlH7rJbcuzsj1l0luSHL+H+mQkJ5pzDKSkpnu2W0q5zuluQepreWDJO7cK3d+Qe3+kOY29/GhUuuabIMsyQ1ecmvH2sRazu4onnXdS7T9bOLNkydPTNDw52hX47SkNCevr8tFU0rrT3Q2d6hgb+6FT93PcNXGCxMFZ1oX8apT0Ho8NSGfAPYBMBpVPgEspclHD0jtZNeN1uV8DZ6WrmdU8KpEuv7Ms2fTZ49nVZuUqEYGOzUkKg0pTSJPfj2NXlqx/PB1lFiQUrZjXXpjguatNF518ZXS2FDQhkv7eZWJv/RfNAI6PqAspfHQ5u3nAOlSDOylZRkNnt30LuG7Ls2TaqbxmdKsLII1ubVRbWrqIwud7crsuezS35m3n/mzuEKbpKqTRDDZU0sp7YYrthFsHeUvUkhpIB7BUpp+Mx3RuWN1NK+TU0q25RjJaZV5sXxBiAQppSnOzeykLj/Zs99asZnXfEvK4F/Qxgzfo/Z8pzTFctZSJYtELKUpmsQ8fpGltLF7rp5HWtjwTGVKi4hYf5Jdi0YKyWqya9SYMKe0iEUvsf7lc0Or9p2Pz6+PTl0XqWyXlVKabGwvLazXctpTWpKefwCy9J6fABaq3Iq5v0kxE4eU0tw6MfkAzEBTGj2zDt9sqnI2SPikOaUxyduPdA56P6n74+soSSntL0ccozhZ+c8zk01pUrepq7D+01CmtNjUTOmlGTNTfXwDhi+leY7xbDmu0iXoP6UN97lvh/U1TiqlDdJ+TFdRDi+Vejzdgxf7Rdd2XJDSQDyCpTQ1ejo7h82iPN8HmYApLSJ6aUqaXp+WstQVWlWFKaWpFs+UFhGTf/1r+tBEZ77HaSPcKS0iYl30rt4c+TR4zRM55UddrZv8zVUr057SIpYsXZamz0hLifcY8KEIVRWnc0hK+9e9/8JqTlJaUiuBprTihpv0xEbPYV2N+/xlNa0pLbnY+qHjOqGBliqP5mRtfBwlqVNSrUwqpamWUKa0iKjYxNR0fXpaYqyvyx7Cl9K0JRgNKU3VZFKaKqQ0mD1mQEpL3kFnup2LKU2rMKU0lUCmQrr0rX1srJ1utkxxbgl2SqthKe2Dp3jVh8Xr5sfviSnsWHuOJrC1hc4GAPbmqgQyVWFOab64h6rlibdJtSPFfRQKS0vegpeSz5RG6XKrmp1Z7Wazj3Y1/yktubjhEz7Gb3Sgs6HYd5/+pLGUphbIVPlNac5ApioUKU2bGZjSfA+aCSCleXsWhxClNN0TfyApbeAXbl3gACEwY9rSytbwaoiEM6VpvC5Ns6mnNE3XpX35vse8/x5iXmMjD+6VP7+NXQA3ceKw26lDdVenMBPHiz+nM3H0POHjCnyljNYNbkmLvbnNGkOVsCktIqLy9AaP5jQpLS2v5VXf/KY0iTKrbVUJWD5Smm55SVjymURqS3uQw6t++E1pZ94/wqtqkNKc/Ke0wWbXCCZPAaS0cftxXlUXopS2h80BhLsGQ+iJldKkZrOaF/WuDinpurT6A7khHj7gM6V5DgNcF39kjLWKuZoTNKU0aTzBmY4lijGezf1J8XxB4KaU0qQxnt/9m0U2xtOqPsZzzPq66x7DS/a/a71zy/pWEa9T7lNv8Ik53GbrCGhWWw0pLeKpr0Yee/TNTz5TzbgL643nxjY1tC6RX4uW203Hb1Y5v6GlN3dijat1jbxNR1Orule8VO0xttjjDVWhKaWFYL40cwqdSsO9OY2N8TTbD853fk51qTHnTy9vr1ni0b6kMaVJXFlNrVHER0qTTpBa89nBNpbnRjtrNV0P54GP8Tz2rqzJY+P7r9x6UHP1kmcXIlvZS5ySxniOfb3a9SeQnfXu1zW3vt7q+BMIMKXN+vnSSAxSfdf4GM+2CtcHIGFvY2eXve2UI7lpS2nSGM/xzxtd08HozEeu2u1dzVXOb/KAUhr7vI22O8fpe/Vm2z88+uZHfzj9LK8DhIxgbWkLV5cdJTnNZnMf41mzYyp3J9TEZ0pzTKnVPJFznF5dvuY0nSU1/3TrItlpXFNKC9p8aRkn250X8ivnFXMORNOS0hwtZ3SiWsd8aW/e+TfFLyrnSxscY79yz/I8X4FIPNnLEphrKKi0ZWliDgfHHaIm/l02hZvKOANCS0qLqLxEb378/QdPqZ17dDHldNY6frRJkeZLuzKSsVJ2/nCfL80xp9qYYb3nOcaQ+Eu65qYTPu7+pCmlhWK+NH6LJ7fmNPf50tqb1rL50ta3vsAflwkopUlIVms5V8UrMj5S2vYTzdrbz6SzKTmh7+MLAuc+X1pN/1/oNBzf/Xd5rcrnZfFb/0nWvPL1f7lGG7R3OP57UsyXJt1O6m9X7t12zu4YWEpj6YHx12fnn4aUJgUaakrzpfm6Q5TcXjYm+P4wncaMlybnm6icL42NHBi/39fk/DbxlszkP1Pu86V19QxK1zh+4poLLbCUpmOjP8n6bMdoOaf20TM98Yf79N7BraopFCCoxOvxXJCcvbuilo7rpKyVlrysEA/vZPykNCL1lME2It1UIP/iiKn81CL35j1tKY0Iyr0HpASjXpwXkGlLaRER6/Jb7tJ+T1o033ug/2q+s/mN4EM775XLchs5R77BbkjgFsI0321dU0qL0D019LsfPfrmf/yh8Rm1oKa898Cmht6UtR6RUHHvAdun8aleksRCS9Jhfm8Jqch7vZnpaksjh+KFDDoXWkfaPtnxVN574FKaVf1ysUmkNG/8X5emiZlNzzDe15THF0yO4t4D977eujubP6SUnfXuA2m6Wl7crmlT3nvgyNVL8bI/gcBS2sxsS1OjmjJ15qNtUvpycEuHynsPKC5z1JrS6PO433ugr/OU+z8BAaU0sr1tZMekjTGe/0SZnvyKfeE8tKEhDcJhBlyXBuCH6YmHo+R780c//Pan/eXP8IUw02U10pA22nkELRYggqynP255/Pvxxx5983d/uqraeA8QfEhpMCukPP2Z/R8ffYM7680i1Wx+0g8n39sJEEzSXYNHfzJUpdpsDxASSGkwexgMT3981MfcaTCTlLeTkDbY7NaDDjB9Nj/VWv6Mt85ygBBBSgMAAAAQEVIaAAAAgIiQ0gAAAABENKdT2sqVK/lPAAAAAIJBSgMAAAAQEVIaAAAAgIiQ0gAAAABEhJQGAAAAICKkNAAAAAARIaUBOJj2WZuamo7vM/E6AADAdBI4pa0sqbPZbDWFqZF8QdAhpXE6c9V7PYOj45LRwZ7mSvPk73BdbycbGb5azKshovYsxVeHyUJ7Pa8GytpFXz7dwnG+BAAAYBqJmtIi9UW1Nlt9TeEyviAUkNKYvIY7LKAN9/V02e03+4bvk8poz6k8/nigZmxK05U0dpIj8EljyeQjKgAAQNAImtJSC2tsNltlXjyvh8ZMTmnWts9bqrYm8NoU6Go7aUb7vNHZeqbLbeyjOa3zyOTCSsApTWcoabDfbA4s1oUgpQkjaG8uAADMaEKmtJRtNfW2ur2maF4PlRmd0mhIITHlzlRP5zzZuPfxsb6/4ZZdvBqxq4WsRCKRqaKlh64+Pn5/dLCrYbssxknbUTfU4iWBsXw26HsdLzSmtOTihk+k1kHm/nDfJ267TbFNydit/AEX6w3+mNIN93V15qqrPcPOvuOhnpbJ9B0H7c0FAIAZTcCUFp/3us1WZzEtjY6NjV4YsovSiBnd46nL3dfYJQWcKZ3OWbKRBTJGuVBKaZ2dfSTl3LTbu3oGWe4Z7bIa+BoR5uMt9i7ykN3eR6PS6GAPr5LyvtXM13KS5bP7wz0fWouT+QNaaUppeU20VZCsxzpzu+w90jMOurfb7W1y7Kp0cZ5KStt3zvFanOUOfS73lFbcLG3fre94fPByYPmTCNabCwAAM5pwKW3hOou1vsayl/Z4UvXWmt2rY0OT1bSntKiEtAx94hJeE4jG0/nCmISk5KSEmIW8LqM9pY3f72nMdTQMJe9rG6LPqfhFyk+Pp3s+u1qV5yOfLWL7Ha+231pS2gssNQ00y66wMx25SjJWW8MLvO6uuIW+KJWUpmSy2kfImqP2etd4UB3bpdGbDa5FpoYeKfZ5tqdFLY5LTE5OjFscxRd4QlYDAJjjREtpbNCAzVZrKdyck529qdByiFbrXl7BHw+qQNrSFidlZGbqE3Xez6nBs69J3mbjKk37+ApKuuUlDc7T+YdVfKmTLsWQZTTSYkjxiAsBpLQut/Sy/TJ9RpWLwHylNHPjHbqTNJ+95zOfUWS/pd02GpZ57Lf2lPZ5o7PBzx9tKU1X0kK36xbRCPbso53VvCqpolf9qWTZhPRM6aVlpvvJXn7eXAAAmL0ES2mrS6wkohXpeZWQBnvaKvNi+YIgCqzHMyouNdNoNKQlhDyp8cuSPPhOD7pVB5v7RjyulCLIjvOUlpkax5c5aU9pyuDFclKAKY3FoIFOa4mWZqFYesClKJPq8fZrSWmOLsjRgZ62poaG4+Xbsw0+rxLTkNJ0Jc0DdJuDV5UjQaWUNkh7hF2F9aGqpLSkDP7SjBlJfJEv3t9cAACYvcRKaSteJiGtpjCFVyXJO2jvp2UdrwbRyi3P8zNlQMVoSAlBZJwCnfnVRlcf4inPeBQVm5SanpGemhTrGTDDm9IMVe/zedlGP2+zFvvJalGxianp+vS0RJX91pTSIiJM5c03eUMUd3+ws9bbtLV+U5rJeoPuvmdEI6RnV6OS0iKil6ak6fVpKUv9jJHx++YCAMCsJVRKi6XjBmwW5Sl0nYUsrSkI/qwcgbWlRSfpjcZMQ2ro29K005krm3tosOB9iJMYTxjelMbQcZeOrDbQ2eAvq6nTmNI4nSHbbC6tavywjz1vX9Mm/oA73ynNZO2ivz16w6qa8lSP5BQE4c0FAIAZTay2NNNeehFa0XJeleiL6D0IytbwahAFfF1aeoIwAwgS8qqDcwrnyUbDTBzBuC5NRpHVSnz3RXo4Tp9ltL2cV5nydro933cOKHnfW5IjfKQ0XclV+npHbzR4O9SqR3JSgvbmAgDAjCZWSluYe4AEMuvBzfHOQZ3LCmvqbbZjJatDMMxzJo/xZNeuBeMUrmlWWymljffJxniWt9FFak1HB9vIBhX5yStnVgt0vrSshh66k3ZXu5bJaqcb6mvM4gtS6+2jI6OD75fLjlDCEdYe5iVLeUtpuhIWSccHW3zclkAa4yk/khE6MxtS2lwlu9JSg6C9uQAAMKMJNnogIjmvkuQ0ktRqDpSWlR2ssZKIZquzrAvJBLeB9XiKparparBO4Y47RI0Mslm+pPYt9wGMUo/nDfugY740aSYw+XxpLjo2rpGsf8dxEf05b4NTHUhWu9ywnVc04o1bNM3QZ+G75HbFGNkTOl8GWconb+PzpQ23yYKb2fq+Yz/5fGnDfbxqb9orrSOlN9krcha3qeDc50tzzir3SVWAb1QQ31wAAJjBREtpERGRsSvyLZXHWFart9ZVlmUnzecPBdtMTmlB5fdu647r0mT3HlCbxN9Bt80xI5okVCMTE4pPdbI5dJmRQfspj2vclPceGB282VzudlkZT2CqHB2j3tdRNAEq7z3Q1+m5SwAAANqIl9LCCClNK9XRAwAAABBKSGmgAVIaAABA2CGlgQZIaQAAAGGHlAYAAAAgIqQ0AAAAABEhpQEAAACIaE6nNAAAAABhIaUBAAAAiAgpDQAAAEBESGkAAAAAIkJKU9q+Z15/2+MP7Y/3WPgSAAAAgPBDSpN7tvn6Pzz65jGpPLTxpQAAAADhh5Qms/tn35N89sVPm818AQAAAMB0ESulmfbavLGs4+uEkO3xR9889n3L07wKAAAAMH0ETGnWGktZWamsvF4XppRW/s8/IKUBAACAGARMaTWFKbzKLMzdTxZW5sXzeghJPZ63nuBVAAAAgOkjVkrTby4rKy0yxfIqpS+qJSFtf+5CXg8lpDQAAAAQhuijB1bvsdps1pLVvBpaSGkAAAAgDLFT2sLcA/U2W22RntdD68ilHz/65kd/OP0srwMAAABMH6FTWnx+Jb0kLT+Ul6SxcZ28jPx4/PTT2fwBAAAAgOkkcEqLZJek1R8I7SVpll88tNM7DTy0/+T78R89Gn38YxN/BAAAAGAaiZvSFuYesNls1j3huSSN2cOuS+uax6sAAAAA00fYlBafR3s7FbNyhBhGDwAAAIAwRE1p4ZyAwwkpDQAAAIQhaEoL6wQcTiyl/fDxU7wKAAAAMH2ETGlSb2e4JuBwwX08AQAAQBgipjT9i7S3M7QTcKiqYbNydM0z8DoAAADAtBF29MB00D311chjj775ux8GfvLQ/niPhS8GAAAACD+kNDcG85NDn//jD+N0ktuHNr4QAAAAIPyQ0gAAAABEhJQGAAAAICKkNAAAAAARIaUBAAAAiGhOp7SVK1fynwAAAAAEg5QGAAAAICKkNAAAAAARIaUBAAAAiAgpDQAAAEBESGkAAAAAIkJKg8DE7O/Yealv0/6dvA4AAAChIV5KW5Ccvbui9phNYj1UsTsneT5/LMiQ0gLXUfPd367Q8iCHL5lGS56zHbs6+NGt0Y9J+Wzw3CnbqiX8IQAAgBlPsJQWmVpYxdJZbYWltKxsb0VtPa3V7EjlKwQVUlrgDMvf/brm1oPyd618wbSJyvt1C81nI5cvXrM1XmvsGKFZrfPXGxfwFQAAAGY2wVLaOgvJZFZLdjSvR0REZ1uO2Wz1FlMkXxBESGkzWN7rH5CINnhsezJfEJGcd2qQBLULtXl8AQAAwIwmVkqLL6ghKe1AjryHc372ftqati2R14NIyJSWl9IwUXClP3Exr3NJl9dfmShouCxrKNLNf+7yqoaxfLL8ykT+xRFT+dtLYvhj3OZu8lBO6c75a1vXnJ2gazaPra86tWghf1y7Tb1SR6ej9HbwB6bLsVO3Rj/ueG8VrzLPvXeZLGw6xqsuuvKWoXFi+P1yHV8EAAAgOsHa0vRFtSSSHdwc62w5i918oN5mqy3S83owidmWtmDXEIlWpp1mXmekhet3OZuJdItKh1jqGjEd7l5R1WuSQlhTd5w83kkp7XB3TvOYtFrORRbpTpwPtFsw670HNbdYufuXi8KkNGUgU11I1NtpRqPs095TCwAAoJFwowfizRZ6LdrRSnZdWmUdjWiW3BA0pBHaU1pUQlqGPjFMV6bHnzcpm814A1tSPK9HRFRnnB3b1NAR7WoV0y15dUQZ71hKy2/uTYp3NCFF7kk/QzY1luH50hfFJCQlJ8XH+Gloe/neGT8pLWrx0sTk5MS4xVF8gUux1KalYqilmK8j42OXXIFsVW3/x7f6X3/ObaG7rKo2qS2tvcrAFwEAAIhOuJQWEbsi75Uaq82hrrIsf4WraS2oAmlLW5yUkZmpT9R5Bo/gMyT+kgSpoZQkXufdncff9nMYMlo3sP5NXiWklFZVz6vM/J39ZOGqrYquP12KwWjMosWwzGevoN+UlpCeybZjNKYn8EVOZuv7dnuXWnnf6tZ4SPncJVcg291Ex3ieKnNbCAAAMOMJltKiTZY6kswqClfG0mvTFsSu2FFBF+w1ucYTBE9gPZ5RcamZRqMhLSH0SS2yoDdflrek7s41BR7NQKnVSaWfrqjq5uXIUJ5aSnNbQmSdJyunb1SEolj66lgkykyN5ctU+U1pSXppO8YsvTNnTorPXUJKAwCA2U6slKZ/sZYO8Vwn7+BaaNprDdGFaSu3PO/IE4EUoyHFZ4wJgsj6Fc0TBWc7WB8r6+5s7nUfT6Bb9BK7Ls2j+E9pXkTFJqam69PTEmN9p1D/PZ5Lli5L02ekpcRPtYvY1y65ApmGHk8AAIAZSKiUFpv3us1mqylM4XVJ8g468LMyL/jJKLC2tOgkvdGYaUgNQ1saCWExb4wVXBlJz+LdnfmH3XotI7I6zCSTnemISZR1Kupbc6aQ0rTyn9J8CKjH0yfVQIaUBgAAs4hYbWnZdLq0uqLlvCrRF9WRpZZ1vBpEAV+Xlp4Qvqnt13+ad2XCvM/CujvHjDnuF2ax+LVmu3sf6MqOTaKntABHD/jAApnWmTgidIZss3mT2Zxt8HnNHQAAgEDESmnx+ZUkkFkt2bKZOKRZbSs2h6CTUdAxnlx5xrmJgsYOw/GJggufxigGDuR251+Z2FRezqvEwp1JR+jcaWKntOAJbFbbqs5RGgWHP9zHFwAAAAhPsNEDzjtEWWsOlJaVHayxzuE7RC3ZN1JwZSzvwkTea9V8kVNktbGJXoWWd7qXjhs4PrSlecK08/KKEKW0rR0WabI053xpY//Fq7duZ/GVwkz9DlEdl0wqU8HtahmmIW2w+Xm+AAAAQHyCpTQiMn71Dkul827rlZa8rFBdqy94SpOuM1Of24yIr0795UheM81q+ReGjPkkitWHKqVJ7Wfq5cEmvlL4ab3burmpj4a0Ow2YLA0AAGYQ8VJaGIme0iA4DI2fk4w22lmLa9IAAGAmQUqDWc9K7w813IZL0gAAYGZBSoPZ7mDb6Pj44HsqYwoAAABEhpQGAAAAICKkNAAAAAARIaUBAAAAiAgpDQAAAEBESGkAAAAAIkJKAwAAABARUhoAAACAiJDSYHrpNia8/VlR769DdRswEF78uWcq/vT0S/W8yjzzxvdPv/Lxswt5VV36p18833oiJoFXAQBmHaQ0mD6Rll8Xjj0on3hwYOjXMXwZzCXZz770hyevPHqi5dFTLx3hy5hnaujCJ658/7R5P1/kKbWbfnjKJ0Y3Ht0YyZcBAMwmSGlzQ+TWg5tPnt68P0+ck1nkno9201PsFxuq873ulSG55vbOS7dNhbhPejis31906VL5yf2JvB5ahmdf+X5ey6N5b371TGI2X+ZiiFje81QTyWo/PL1lJ1/mISZqzzsFNOiPP1+/ni8DAJg9xEtpkbEr8i2Vx2wSa6UlLytUnWEzOaVtO39oYOjQO9t51Y+8AvvQiQFSbhVs5Ysk61ql5Y7Sepg/EGq6Q5vpyfUL0x5fjWhF985897crpHx5L5kvmsn0rTlXJgpcZSRVzx/xZv7a1jVnJ/Jdv9Idxx8JhaI73137jpY3T/IloZQ9/iSJaG8NPevjP4eYj59+79ETV/70jK+3f92J5+ln6bercBMwAJhtREtpyZvL62g6O1ppKS0r21tRW09rlfkhOUfPnZQWEV1xvqy1reydN6L5Ak5/so0up6XrSBhT2pLLX5RPPNh5OZ/XvdmZ8+GDmlsPXqnz2poyk8TXp1d1r2Bl1ekx/ylt8ak1zRMFzWOmw/y3VlSdX8IfC4Wosnetd26duPGuKfT9z5VPv/noiZY/Pe33L3sDDXNPVrXyqqrIo59ZJh5YPq1DvycAzC5ipbSFuQdIJqvbmx3r/LaNNllIbKs/kOv7OuJJmUMpTYPD+8KX0gqfG3pQPvGbzGnpx0zIq27pa7fy2jRZVDriP6Wt/zTvysSGV/bw6myybOiplkfzjn/Gq768+fS7j5648vAZXlX36oYR8om6nc6rAACzg1gpzbSXhLSawhRelSTvqCFLLet4NYhETGm0C/L2eekILDzeRXshr/9KSqiJZ26dGGjjx8GR0qLLzu+/TTsrfzVw9/ULb8S6t5WlvHPX1ZtJimPLavyltKXbc1pvHXNs6pi9LWfbUv5QwE48P/GgvP/iYl71YH3lK9bR6ShnPgxKqKL5rGd4nLoR6AZ185+7vKphzNn5uKWhN2Wtx4cy0hxd2rvhgmOdxt7U58z8IXeaUtrmbrKRnNIptSPGbMxvuXtx4lupK/PadxMX+6/mKy7hOtnreFQqvS/xB1xWt33lvo6jjH24mq/CkKdr67/Kn+7b9rH+Q4c3RvHH5LY8pCMGdnkfGSDzzBuPnmj5/mnfx2rZp+PlE6OmWdHmCgDgIFRKi817neaxbEW3RbaFdnrmBf/qNBFT2jKaq9rWsp+XXxg4fvvu8dvnl7HqqisDJGZJP/OUduX9N0g4a28ra71GqjQ8XTkoP3qx1ayj09mhOemUpj9cdpduv95+jW6t/VY9fbqBsuoMvkJAdn70Mklp3Sd41dP+Te20o5OWe/8djJQmy2f3B+2N+8w6/oBW6z/dQoJX80TOcdbzeLjf3Exy2NiKXHlz4M7U0zSc5Z/tX+VaZyLnJZXo4COlzd/Yyvs3bWSdibzTvbxKS4A9njHbb0ywwPTl23dunbhz6+3BMVqduFWUydeg9r9HHmLl7tUJsrJKSss42e5Yx1n+vVWZ0l5+40sput2jT9d/j67w3XdXW17mjzs9+8r3JKU9vYVXfdO0cmzraPnEg+fdpvMAAJjpxGpLW11K8pi1xO2f84jVe6x0YQgClfaUFpWQlqFPDOUlQQ6RR66dGOgy07N3dHb70KHWtkO8/YxWT7Q7rrxhKe1XA9c2r3e0nq2ue5UGqa489bFuLIRNNqVJbXKH3il2RsDIIroD6huMWrw0MTk5MW6xWiMK5TelyZx84CelRS2O8/Vs7vnsVInBez5bGJOQlJyUEKPSuR5XRTOZMUf2yxlvG0hseqnalYo3d+eTUHXk1HxeJyHp1KoLJNt1xyn+8fCZ0thDNN6plQBHD9jepJmse7vrOrMY07tdJGO9cVg1X798aEw9pSnFlL3x5bfXvvv2YkuZ87hHsTa59v43XUNE17/5thT7FBe6IaUBAGgh2OiBlSV07EBdReHKWHqqWxC7YkcFXXKsZLXHeW7qAmlLW5yUkZmpT9R5Cx5BU9Z8dODuC0Xkp+IXbg+Vv3P+jYG7hdtIdXvh7aGjF/aylRwprfWw/LDQxraBgZfVe5GmlNLYUFBF/svOu04WOnpgZRLSM7OMRlKM6V7mGw1mSiPPRp8ry5ip8mxVbVI+Gxns9JnPKF2KQdrtLEOKx5pSSsvw+Xlh6WrM6B6SY15THyUQph5PKaV1buJVvzSmtHUv3aFNdFfbXBGNYL2iEyfcP0KsMe+rQ7t5lUNKAwDQQrCUFhGRWlBJUplTzeuVVput9kXfZ7NJCqzHMyouNdNoNKQlhDaprT/9xsDQvmryE4lNA8Vlh8tc1aE3TjrmlVIbPSC1eLGVPU09pd19nXee8vI6vR5OJaUl6aXYZMzSJ/FFCsFMaUkZ0nMZjRmez2a1j48P32yqytXQwUneXr7bmakeDVaRud2sx3NkTXlrUv6pmExzpEeLm5TSco44eydp8TaWM0wpbUURi1PXxvqtbe+WvlW7YdNzPluEtaQ0EtG+pm1md04qplWTUtrVfreO0be/REoDAJgs4VIaMT9pRd6LZWWlRXnrttEBnscsphAM8CRWbnnekScCKUZDSihvZ0RjWfWZPJbDusx6OtUZrW49Wz0wVOZMYNOQ0lSLSkqLWLJ0WZo+Iy0l3lsgCGqPZ/TSlDS9Pi1lqWKSEaq44abUmDY+3NW4z09Wi4pNSk3PSE9NilWL4boFWz81nZV3Pk6Yf3l+kawt03tP5fSltIiImMKXbvDrwxxl7O1Lbm1gMn5TWoyp7UvViEZ4HWGAlAYAMDkipjSnFS/T3s7KvHheD7bA2tKik/RGY6YhNcRtaaxn8/iVgxHVbSfuNi+PiFjbyqqsJ5R1fTLTkNLUAtnkmC8WkZTWe0ZLL7bflOaPLreq2ZnVbjZralfzYeGq+fE7ojeeN56hCWxLuetoawpeDmFLaQ5LVm/NeOG1oku3rtLYNGFVf6N9p7QYU8u/09T15YeqE6qxlOYRyFQ9u+tPJHg9ladpKpZn99GU9pTn7Qnk4mhKG9+s/uEHAJihBE5p0jVqVdtCN+l8wNelpSeEYwABjUTtdSlnbp24fjpWyl7XT8fTUQWynDQNKU1534IpOLGVpLSRj7RcCT/llCZRZrWtU75Fd+SpVVcmCs60LuJ13pa2IpdXfQt7SnOKeusuSVpX2zzGXVK+Ulriyd52GtHaN3i5gZTUlqbtvgXmh/NI8NqnpenL8Mwv2UwcfHSzuhhDL72VxXM7eB0AYFYQNaVFrmAZrabQ51fzFIk4xpOgk3HcPp93ZYA2oRGsUc3MFrqORohSmpcVpC0fubB3AV8QEbG0ZPOVtrILdV4uPfMtM5OeU0c3WHjdhyClNIkrqwU2X9qe1BNjm851J8pbkJZdXk9S2unLrkPCxnjmH397vrONMNIcV9q9oupytPpFbBMrNvts2NOS0nQlzQMsew40l3hsrOz9ixNft955SxarYoysPexqCx2g4sFrSks8eYt2m070vuT9dpnSGM9rg+8ucx6nmI1FbbdO3Lman8YXOCz+7Kkrj55496tned07TWsazmyjuf/apGfwAwAQkqApTerrrC3S1ns0WYH1eIYNncz2btu+646xAjSQtb18ZcA5vS2lKaWVbHFd7M/mS7t761VePW9Snm0zctvppWZHpRnRWCmqdvQyKedLY1sbGKo4uZGvECB+S5/eM66MI7P/Np8szTFf2sUv/5NX2zum3v9NslrLuSpe0WZBYT+dz7Z5hN+syTEX2prt8m5g9/nSqnpzLtLqJlmvqEtWh5ltcI1rqIHHXGhaUtquFt5COD7csosvc9lmGWQTzEoTmDnnS/vu3yyut38rC1JSkeZLG2tyXPtf7hgw/BK7xWfrl72ONZ3lvQ18FcJ9vrQ7/ax39bvWG7WeFwkYnql6xDo9fbcUGnh350uVfIGaGNbdqeGGYwAAM4yQKW15US3JaHUlK0Iw+4acoCktYv/7x2kGcs6pwVq5SH5yTsNBaEpp/BfViuwSN6elJZv5dLW8uG1fee+Ba/n7lfMPB2K9vnucnFl3d7zmGdRY+5l6+eqeslUmTDzuPdDYb9jq0b+mvPdAvyHfWwrRzc/tcB+O4DEX2pTb0giPew9cHex66QV5o6DUfqZenN2XUkpTK+4Nb8p7D9yzvrXbSxs0v5P6908/5+0FGp7d8Qe/d2SPiX77N3snHhwY+ihualccAgCIR+jRA6EmakqbI3Rl7G6eD/aP/MZ0ytugQ5jNlg/R3syWR08dGXpmudt/HM+u6X/61A/zSERreviM2lAFakn5xY1D4wdIRBu7rQ/a2BYAAHEgpcE00m1Maf3tK2wkQSgnNwFxxTc/baNp7KlX3EYSPHOEpbeaz571MQuPvpum/Je7z8RMeSwIAICQkNJg2iXkJx59zeud12EOSDz3zCq3e2Y8m/3xs4v9zdMRe/REnMFbQxsAwCyAlAYAAAAgIqQ0AAAAABEhpQEAAACICCkNAAAAQERIaQAAAAAiQkoDAAAAEBFSGgAAAICIkNLEp8uMq764ofv21u6LmLwTAABgzkBKE5zh0MYROsE6K7dDe/d5AAAAEAhSmthiW0fpPXA6Di3GnaQBAADmlnCntPlJmy1HbYzFxJe5i4xdkW+pPCatY7NWWvKyQnWLxxmQ0tidCkdNO3kVAAAA5oxwprTozB0VdfU229HKGhrUVFNafO7+OprOaisspWVleytqyfq2ugO58fzxoJoBKS2xYxwpDQAAYE4KX0qLL6ih6as0O3lBciH9US2lrS6xkkcObo6N5AsiYjcfIEHtWMlq55LgmTE9ns/X8yoAAADMGeFLacn5ZUW879JrSkveQR8oW8OrktWlZFlNYQqvBhFSGgAAAAhrWkYP+E5pykCmujAokNIAAABAWKKmtIWry+psdaWrF4qR0qIS0jL0iUt4LWwSdq3pf1A+8ZtMA18AAAAAc4aoKS2FrVJTmCxGSouIWJyUkZmpT9RF8XoIsXGdvJT2f5a5E3PZAgAAzEFIaZpFxaVmGo2GtIRQJ7WE87e30jsN3N7a+8WrEw9e6T6xgD8CAAAAc8fc7vHc8rwxyxhwMRpSQjWDm4c4el3a+OZqXgUAAIA5A6MHNItO0huNmYbUkLelyWH0AAAAwFwlYEoTcyYOdl1aekK4BxAgpQEAAMxVYqU0YWe1naYxnjyljW8o51UAAACYM8KX0vSby8pKpWKpobfprK3g1SKT6zIvxx2ijlayO0RV0jtK2eos66L540EVWI/ntMB9PAEAAOaq8KU0016avtS492bibutyyz4dp6MHjsbwOgAAAMwV09LjKYoZkNIiy6+V0onTRot6b2/tvoiZ0wAAAOYMpDTRxSyu/mjHyPh+mtVu6/lCAAAAmPWQ0gAAAABEhJQGAAAAICKkNAAAAAARIaUBAAAAiGiup7S4VZuEKgLuUphLgwaKX0FB8Sz8s+KP4rdQUFBQhCpIacojMr0FKY2cOKPXrvNRcGZF0VL8fpBIwWcJBQVF8IKUtumZ+CxxCtklxZK5VsiJ88kUvY9CVlD8CgqKZ/H7QSIFnyUUFBTBC1IaUppYBSkNJSgFKQ0FBWUWFKQ0pDSxivrJdVXLk4f+PO/Vc+Rn4c+sabdvRj10lbhTyhU0lVPN8o0s7nhRuQKK78I/SNlD89789slNv3R9lmQFKQ0FBUXwgpSGlCZW8UhpxU+++scnrj56ouXRvFfPzIQza+LDbx575CqRHcoVNJWOO/KN/PyeRbkCiu/CP0jPDc1jH54nTg09qZd/rmhBSkNBQRG8IKUhpQVWVq+xnXrx3KE1LyiWB6u4p7StT1b8X3qKbfx63uriGXJmZSnty2ircrmyRFd172z53caqKsVyRbF+9HOktEkU1wdJb5v3xp/pp+jsyJPLnB+tGfFZQkFBmesl3Cktfoftev/vmPZavsxD0g7bJ//mb6UgQEoLvNg+sg0MnRgYsnUcUj7kKqvXN187ylbjxdfKiuKW0rZ9O8/j5BrUM+sbyxonCq64Svb+NzzWcS+rLmSevp/v+pWvlj2nWEdjSuuu/u5vV2j5fbbyIbcyq1Ja4+/ZS3aW329UrBC84vZBcsT9ebVtsoVIaSgoKKKXcKa0NXvf/YyGr/7bt2lQUw9gaywXPqOP/tvt23RdpDTBiqmo4MOPXu1oKahYrHzIUVJOXSNJzvabWwc6yJqsnHtZsY73Iju52uY1Pnqi5c/z1rpOq6QE9cy6J7a8N6uWlWNf5PlPab9Me4eGs5xfOX6r9lpspmIdjSltW8alb6vv/P7gpSaPh9zKrEppVQPkJUul/n44UxopKh8npDQUFBTBS/hSWv47t0nq+s1Hx3Yk7bhwx0sAKzjLVmo/tiN+x7u/QUqbkSX3w4ETA3dfqlAu11ZcJ9fnRmhD2ole5zlVKqE6sz53LdtvSst8/7krEwXHLiiXuxWtPZ4ay2zt8dz4mzCnNP2TL/2RNqftp1c3SgUpDQUFRfASvpS2o7H98oHsaPaj15T2wtn2i+V8JaQ0kcqhA/IezIGhAzbFCq6ypYOscHf3q8rl2orr5Fr8e3ot0T7l6DzXmTXljaVVvzVf5J2P+Re/eq7qwvwEt609E5+7oKh33fkJqY8y7/wXmUVecpiWlMbWKfjlO8rlbsVPSmPpRFZ+061YQVFmWEor7Cgb+OvFB+ylPfjh7MB/PFe4TbkOK/5S2supTb9vGOdH6eL4X6ub3o6UrZD68V/Jrz9f//UZ8lwP/nrwZFX0yW+dP5MVVFLaqiH6ibLecC5BSkNBQRG8TMvoAe8pTQYpTajy8g5H92X5zQG1lLZ+czNfoeoOSWkDh67zKi2T6vGULiQqdpxiHcVxZt2XeIqFs3d+u5J1Pq4+Q6NY/pm2Ba6tFcTW3mcB7ovVdJ3+bBbpttS+E+Fax1F8pLSc9+W9ogXv/NbR3UlKwD2exqu8y6+6/68XZ1lK2/8fZ1ioOvs7+gJrf/cDy1h/fXm/x5p+Ulp59h32uw/+WkeP1R9p/Prub013uhc61mEp7c/1/X+uvfPHs2TN+3Q1UujPE98+p5rSUm7Q1tl3RpxLkNJQUFAEL0hpmlJapHFrusm8yGN50Iv2lBa2XVKWlc131VLatt00nHkpKqMHojJyE1ZuXJqxRrFca0pb1UabtU63zXf97i7dfhKbupaudiyRmr4ary1wNrAlHEqjwwU8L/n3mdIKe0m281ImPXrAkWmmnNK8HUlSij4YGVc38ut9jtVO9/BlHj477dqUo6xemGlOXGmOSV3t8dA2qZmw9pxr1Gr0uT96S6K+Upp0ZP7Pf2RkOJZkNJX9Hxr4yhyBj6W0H/bV0p8zrpGf/1pW4fz5zzuLkdJQUFBmQ0FK09iWtjZh3bblJvOSZMXyIJdA2tLCtEvK4iWluYqWHk/9pozc7QZaCpL0bg8FltJ+dVmlVcxZWLp6rmyPfOG/lP2WLMwqdC3hJVw9nq4SlJTm/UiSktvw8Wc3etTKx8dfcKz2WovHo7y8+5prU7xk5bHn2m7YkBeveCieBSnWjiVb2PH6BM1bqW4LafGV0thQ0IYWq3xhXMufaQRs5FWW0nhoU/0ZKQ0FBWUWFKQ0zT2eyTnLsrcb1m+N13u2IgStBJLSwrRLyhKUlGbYupxni23LDG4PaU1p8W8sO0Nbszad6k9/5cLS7dYFywvk26GFpTRzg7N3kpWGr2ZVSvN+JENSVuSz5yIlP0HxEE9pf611jOJk5Y9nJpvSpG5TV2H9p0hpKCgoc6rM7ZS25fnsF0sdZx3NZUNB0nLlcQxWIbukfDotJZS7pCxBSWnxq3Urt6auy1u2Mlt+STgpmlNa1jMZ1uRffpF32dX/mH/xC0P+LuemfPRUzp6U5v1IhqY8F7t6a9q6rUmZz3k8JHVKqpVJpTTVgpSGgoIypwra0jS3paVvTNuw3ZAtUltaWHZJWYKT0rwW58l13j46X/y8nVud51SpeJxZ10Us3/Mv608mlv92E0lsl3+b6Lycn6U0lUCmWmZqSvNVgt/j6auwlKYWyFSL35TmDGSqZTIpbVkvTWlvDc1zLEFKQ0FBEbwgpQVyXdpzIb9aP5CUFqZdUpZwpbQnC+lMHPNep3dYlxcfZ9YFB917M1lKy9570LmCrzIbU1oIRg/4KFJbmp9bKTiL35R2pu1t5XJZmUxK28Bm4PslZuJAQUGZMQUpDWM8AyxhS2nLe+l9ss9/7TynSkU6s0YU9m5qur/uoPwC81xp3o2sAscSKVS907UkxbXOopduuo0DdRa2cr7vBDbTUlp4Cx/jWXdJ9qYUflp25/fVH3R49saylXm0UhbpyNz/dtUq58KXjfRWDd9ueYUvmUxKe+P/0dz/0qvOJUhpKCgogpfwpbSSU+3tH0nlOrv5028+49ULtbl8nYiX33Ss085XsvPqhUPZfJ3gCaQtLUwlkLa0MJYMW5Nz8jNpvrSjXV7nQgtWSkvZOu/II9bp+ZrztEoKP7MmnDQ00SvM8s70S8MCpPnSSCZb5JrYVjlf2nPs/k75tvdl83c4i+fdn3oTc9zXmXpKK+7e57wcXpov7f6fHRfIDxgVK7Myc1KaI105L/wfYC/wux8O1qtMbLuw6Y9kzSvjf3aNNrjWHccfVcyXJt1O6m9XfjeQ6Pj1gFOasXfepUdPXPp2XqjuCYuCgoIS/BK+lFbbQUKXqt9ceIGvE1Hbzpd5+M27O/g6wYOUprVI7WfqxWMutKClNHJmvTHv4qMnrv7fefmuoOY6s6Yo7j1wf90v25Y4Z9jiRXnvgZWvnPwX5f0JHCXzrfSGr6Q1paK8pm3qKc2RY9SKevffTEpppCjuPfC7b7dYXlauw8vLxku/l6ar5cXtmjblvQdqP+iIk725gaU0Y9u8syTx/795xWqJHwUFBUXUMi09nqJAShOwuJ1cSdkwQvs9Wx7Ns47M20D7qoQ/s7KUdv9//+Fm1ENa4k4pV9BUTjVLvx71h3//p5mU0oQp/IO0/Ny8it/zj9D+AK5xREFBQRGhIKUhpYlVlCmNlFVt806xK4oq6Fl2ZqQ0V4nsUK6gqXTckW8EKS3gwj9I2WzEwIU/znteeUNYUpDSUFBQBC9IaUhpYhWVlCaV1S3zNtMTLc6sKFoK/yCtapm31eb6FLkXfJZQUFAEL0hpSGliFa8pzVFwZkXRUvx+kEjBZwkFBUXwgpS2Sagi4C6FuZATZ/TadT4KWUHxKygonsXvB4kUfJZQUFAEL0hpyiMyvQUpjZw4/VL8CgqKZ+GfFX8Uv4WCgoIiVJnrKY3/JAwBd6m8vJz/BAAAAGGElCYWpDQAAACQIKWJBSkNAAAAJEhpYkFKAwAAAAlSmliQ0gAAAECClCYWpDQAAACQIKWJBSltVjAk19zeeem2qdDAFwAAAAQu3CltftJmy1EbYzHxZe4WJGfvrqg9xlapt9ZVWvKyYvlDwYaUpsVcSWnrWodODNwt3MarU1F078x3f7tCypf3kvkiAACAgIUzpUVn7qioq7fZjlbW0KCmltKiTZY6Gs+sVQfKSsvKDtZYyfq2Osu6aL5CUCGlaYGUFridOR8+qLn14JW6nXwBAABA4MKX0uILakjgqi3NTl6QXEh/VElpmbtpRqvZkcrrxDK2bm2RnteDCSlNC6Q0AACAaRG+lJacX1bE+y69pbT4vPK6uqMlqyN5nZFWrswLQbcnUpoWoqa06rYTA0OH3tkeXXZ+/+2hXw2QjDVQ1VqXtJQ/zi3dntN66xh9lJZj9racbfI1thfe5g95FrJxvpZG1le+Yh2djnLmQyt/xIPuYMvw/fHx+8MtB3V8EQAAgLtpGT3gtS1NDV852y26BQdSmhZip7TWtuqBgTfa28par1WzaPWr66fj+RoREfrDZXfpwnr7tbLWtrL2W/V0nYGy6gy+QkS26R3yu7S8TuPaQDXdFC9F1dl8LY32b2qnHZ203Ptv3ynNemOcu+F1HQAAmOOET2kLcw+QdWsKQ3EVtvZIFJWQlqFPXMJrISTgLmlPaWHbJYaltF8NXNu83nHRYnTxCyxpFZfxBSnv3GVNYsXOiB9ZdP4QCWq3z6fwBS7aejwXxiQkJSclxCzkdW9OPvCd0gzVbVJbWls1xoECAIA60VOavqiWrHrAPO2jBxYnZWRm6hN1UbweIgLuUiBtaWHaJUZKaa2HeZWJPdlFFr56hH9cWPDqylsv1STZedfJwrZ1vOqiJaXpUgxZRiMthhTfHZX+UhoAAIBfQqe02Gw64tNqyQ5JRgu0ezEqLjXTaDSkJYQygwi4S4H1eIZllxjHdWm8KnnptLynUgperzt6MKXCejYnmdLIi+MpLTM1ji9Th5QGAABTJm5KizcfoAM+qwpTQ3BFmmTllufZGTfAYjSkhGoGNxF3qfxInfLptJRQ7hKjmtLcseClWiaZ0iKiYpNS0zPSU5Ni/YRQpDQAAJgyIVNaZOzql2lHp62yUL+ALwuFwBquopP0RmOmIVWgtrSw7FJgbWlh2SVGa0pTCWSqNKU0zZDSAABgysRLaQv0hZU0odW+vDo2ZK1okoAvAktPCPWl8QLuUsDXpYV+lxitKe1WwVZe9S3MKU1nMG0ymzeZTcsxEwcAAKgTLKUl5rL7R9VV5Mkmtg0Z7ZEIYzy1mIYxnr5TmjTG88iFva4W2aUlm6+0lV2oS+J1l+UXBuTjQ6fIb0qr7hyl83AMt+3lCwAAABTCl9L0m8voTZ9osdTQ23TWVvBqkYlfwCSlN1tdpcWxprM41wmmwLoXw0LAXQqsxzN8NKQ0j/nSuo6w69IqTm7kK8hE7n+fTX57t9wxzmDLS/whjfbf5pOlOeZLu/jlf/Jqe4drEjem+OowDWkDzXl8AQAAgFL4UpppL01gamoK+eRVPKWpca4TTEhpWszklEYo7z1wLX+/txmSoxOPtElT40plXzV/QCPWfqZevrqXxleSmJv6aEjrOYXJ0gAAwKtp6fEUBVKaFqKmtJksq5GGtNHOI7gmDQAAvENKEwtS2pxw3E5C2vCH+3gVAABADVKaWJDS5oLy9tHx8cHm53kVAABAFVKaWJDSAAAAQIKUJhakNAAAAJAgpYkFKQ0AAAAkSGliEXCXAAAAYFogpYkFKQ0AAAAkSGliQUoDAAAACVKaWJDSAAAAQIKUJhakNAAAAJAgpYkFKQ0AAAAkSGliET+lxezv2Hmpb9P+nbwOAAAAoRHulDY/abPlqI2xmPgymXUW6TGlvSrrTh1SWuA6ar772xVaHuTwJcLTLdv+6wu3Rj8mpePSKr4QAABAeOFMadGZOyrq6m22o5U1NKippTT95rLSMreyv8aKlCYQw/J3v6659aD8XStfILYFz+9uHKD57IPPLyOlAQDAzBK+lBZfUEPiVm1pdvKC5EL6o1pKczdfX1hJU50lN5EvCS6ktNnuxabRj28Nnzv22rIFx04hpQEAwMwSvpSWnF9WlBUr/aglpUWvLqklEa2yKDOaLwk6pDTtNvVKHZ2O0tvBH5i0evv4+Li9ntdC48VTXfueS2Y/+k1puvKWIbJH48Pvl+v4IgAAgOk0LaMH/Ke02OyyunpbnSU3PpIvCQWkNO2y3ntQc4uVu3+5OGNSmozflMb2h7HPjN5cAACY7cRMaSY6iKCu0vJinskQO58vDD7tkSgqIS1Dn7iE10JIwF1SevneGT8pLWrx0sTk5MS4xVF8gSrvKa346rAUlzwMt+zi67hELY7T8Gz+U1pWVZvUltZeZeCLAAAAppPAKc2pZvfq0HR6BtJwtTgpIzNTn6jzHQWmTMBdUvKb0hLSM7OMRlKM6Ql8kcMma0uX3S6VPhrFhvsc1a4W6ya+lvl4i2OhorjWcSLPRp8ry5jp8WxucF0aAADMNIL2eHILU7NLa2lQez0vni8KpsC6F6PiUjONRkNaQihjkYC7pOQ3pSXppdhkzNIn8UUOu1q8tZKpt5NpkJQhPZfRmKF8NjdIaQAAMNOIndKo6M3ltD2tMIXXg2jllucdeSKQYjSkSKMgQkDAXVLy3+O5ZOmyNH1GWkq8z/7YYF2XFr00JU2vT0tZ6rvBFSkNAABmGvFTWkTyDrb2Ol4NosAarqKT9EZjpiFVoLa0sOySkv+Upo33lBZQj6dWSGkAADDTCJXSonP31tUdLcteyOuSFS9bbTZrSSDpRaOALwJLTwj11foC7pJS6FNaYKMHNPKf0nSGbLN5k9mcbcBMHAAAIAKx2tLi8ytp7+Zu2RRpywpr6m22YyWrQzAlh/ZIhDGeLqFPaSHhP6VVdY6yJPjhPr4AAABgWoUvpek3O+/7ZKk5RsJYbQWvFpmc11RFphZWkYfogxby0MEaK4lotjrLupAM8gysezEsBNwlamuHRZoszTlf2th/8eqt21l8JfFsfNF2zdYolTstJKV91t/Iq40etyHlIxsGm5/nCwAAAKZX+FKaaS+LXyrcRwZExq9+8UAtjXE2W721rtKSx+9YEHxIaVpJ7Wfq5cGkLxULueKaDnaTdZXy6W6+joO5qY+GtDsNmCwNAAAEMS09nqJASgMHQ+PnJKONdtbimjQAABAFUppYkNKmiZVeJTfchkvSAABAHEhpYkFKmx4H20bHxwffy+NVAAAAASCliQUpDQAAACRIaWJBSgMAAAAJUppYkNIAAABAgpQGAAAAICKkNAAAAAARIaUBAAAAiAgpDQAAAEBESGniSTh/e2v37Q3nD8UZYvgiAAAAmHOQ0sSj735QPiGV0Y3VmXwpAAAAzC1IaYKKWVx97WUS1EY+CtW95gEAAEBo4U5p85M2W47aGIuJL/MuZVtNvc1WVZgayRcEl+DXpe0yjTwon7it51UAAACYU8KZ0qIzd1TUkdR1tLKGBjW/KS15W5XNVl9TuIzXg24mpLSxa4m8CgAAAHNK+FJafEENiWa1pdnJC5IL6Y9+UloyW79mRyqvh4DgKe3E8+jxBAAAmLvCl9KS88uKsqTEoSGlhbivU4KUBgAAAMKaltEDflMa7+vclsLrIYKUBgAAAMISMaWl7mB9nQXJvB4y2lNaVEJahj5xCa+FycaV/Q/KJ367ZmcCXwAAAABziHgpbVkh6+vc5shoJguNbIWhiGyBtKUtTsrIzNQn6qJ4PSzWvbamd3Q/nThNKhjvCQAAMHcIltIiUwtpX2dlXjxfIExKi4iIikvNNBoNaQlhS2oL6m+/MvHg1aHfbO2mdyPY2n0RrWoAAABzhlgpLXZTBXmgMt+V0UKb0rY8b8wyBlyMhpSwXCv22oYxel1aHK8CAADAnCJWSktmV6TVvlZWVuosFbWhS2kBtaVFJ+mNxkxDatja0jB6AAAAYC4TMaWpEOS6tPSEcA4gQEoDAACYy8QbPaAkxHVp0zLGk/d4IqUBAADMSeFLafrNzk5MS80xkrxqK3i1yOQriAgzeiDscB9PAACAuSx8Kc20l6QtVTWFvmavnbMpTVe3eexB+dhnIbuNKQAAAIhsWno8RSFoSks4f3tr92+KaEPag72fHgrlPbIAAABAWEhp4tF303y2f2x0R+uhxTq+EAAAAOYYpDQAAAAAESGlAQAAAIgIKQ0AAABAREhpAAAAACJCSgMAAAAQEVIaAAAAgIiQ0gAAAABEhJQGAAAAICKkNAAAAAARIaUBAAAAiAgpDQAAAEBE4U5p85M2W47aGIuJL5NJKayRHlTYq7Lu1M2VlJbyzt0TA0P7qnk1tKLSXjvywcjHt0Y/vjVQ8xxfCAAAAAELZ0qLztxRUVdvsx2trKFBTS2lLS+qs9msVZay0jK3slnPVwgqpLQg0xnLrl2m+ezzCx1IaQAAAFMTvpQWX0CbyWpLs5MXJLMWM7WUts5CHqjZkcyrIYaUFlwvXfv41uhHVy/lpel2NyGlAQAATE34UlpyfllRVqz0I1KaT9vOHxoYOtF6OHJrXZl94Ffk54GhI+3nV6yP5itwS5OOtFXdHZJWqL97q+zI9gX8IWpdK12uXloP85WC6aXWxooXl7Af/aa0vIabo+Pj46M3G/L4EgAAAHAzLaMHkNJ8k1La9bayu0OH2tvKWq+9fptFq7vvr3LltIy1rQNk4a8GbpW30nWqWfw61np4IV8hQn+SLKflVTtd8wjZIKvScrKErxQi/lLarpZhktGo4ZZdfBkAAADIiZnSMjN3HKi1kh9tNmvtgR0rYiP548GlPaVFJaRl6BOlZqLQk1LawN3isqV8ScSa7HaatMqPZ/AF0jq3zy9z5rbo4hdomLtbuI0vcNLY47koJiEpOSk+xhnzpsBvW1px0+esLe3zpmK+BAAAANyImNKsdXXW2gpLaVnZ3oraehrV6kpXByM6KAXSlrY4KSMzU5+oi+L1UJISmP1sIq8z+98/PjB0+B1HpqluI8HrjZPZvMrEnuxSTWOaUpouxWA0ZtFiWKbjy1z2NXXZ7SqlaR9fQQHXpQEAAEyVYClNv5mO6Nyx2tWxF51tOUZWrsyTLmkLqsB6PKPiUjONRkNaQsiTmuO6NF6VrD9cJO+pZCnNrROTlOvqaUxTSoulr46ltMxUz2NttUv9k0p2K19BASkNAABgqgRLaWr0dHYOm2UdrwbRyi3PS7kksGI0pIQgMsqopjQFltJUyyRTWkRUbGJquj49LTE2CCkUKQ0AAGCqZkBKS97B1g5FSguoLS06SW80ZhpSp6ktTYGlNH/BiwvXTBwySGkAAABTNWPa0srW8GoQBXxdWnpCWAYQaE5p1Wc0TWMhZEpLWGM2byJlVQJfAAAAAG7ESmlSs1nNi/r5fIHjurT6A7khGD4g9hhP3ylNWud2s9E5DDRiqf74+2WtzTlbed1p4XE6qsA1PjQM/KY0c1Mfu7DtToOBLwEAAAA34Utp+s3OOz5ZauiAgNoKXi0yOS/zWri6TLrLp/sYz5odqXyFoAqsxzN8tKQ0j/nSpDnVfnX9dDxfQcZ8+g2ywYGBN+jsa7QUVbsNDg0O/UtXbI3XpHKuk6S04csXefXARr6Og04ajjDaWes5nhQAAACo8KU0014Wv1TUFKbwdagFydm7K2ppjKOslZY8fseC4JvRKY1Q3ntg35mDsYrbEzhEl53fL02Ny8qhd7bzB4Jo1bEBdpN1lXKqjK/jUN1JZ0sbbvMykQcAAABMT4+nKERNabNfeTsNaYPv4e5QAAAAXiGlQfhtbx4kIa2nIYvXAQAAwBNSGoRdVmMfvSTtCC5JAwAA8AEpDQAAAEBESGkAAAAAIkJKAwAAABDRnE5pAAAAAMJCSgMAAAAQEVIaAAAAgIiQ0gAAAABENOdTmuUXD+2PP2z7eeueZ3HbbwAAABDHnE9ptscfffMYKz/6/vq8ENzdEgAAAGAy0ONJGcxPjn9Bgto/Du3mSwAAAACmV7hT2vykzZajNsZi4su8WFlSR9aqKUyN5AtCqr7lHx9989hDG68CAAAATK9wprTozB0VdfU229HKGhrUfKa0SH1Rrc1WX1O4jC8INZbS/udX5bwKAAAAML3Cl9LiC2pINKstzU5ekFxIf/SV0lLZGpV58bweeh/fQo8nAAAACCR8KS05v6woK1b60U9KS9lWU2+r22uK5vVwQEoDAAAAoUzL6AHfKS0+73Wbrc5iWhodGxu9MCwXpRFIaQAAACAU4VLawnUWa32NZS9dg6q31uxeHRv6rLa/6cePvvnRny49nc0XAAAAAEwn0VIaGzRgs9VaCjfnZGdvKrQcotW6l1fwx0Po2eZLj38//phj+jSM9wQAAIDpJFhKW11iJRGtSM+rhDTY01aZJ13SFjqmJx6O/ujR+P/6g/1xejcC++M9Fv4IAAAAQPiJldJWvExCWk1hCq9Kknewtdfxaoic+/h/0uvS9vAqAAAAwPQSKqXF0nEDnsvXWcjSmoLQzsqB0QMAAAAgFLHa0kx7yfK6ouW8KtEX0XsQlK3h1RBBSgMAAAChiJXSFuYeIA9YD26Odw7qXFZYU2+zHStZHeJhnrzHEykNAAAAxBC+lKbfXFZWKhVLzTESxmoreLXI5BoZkJxXSR4iSa3mAHnoYI2VRDRbnWVdyCe4xX08AQAAQCjhS2msN1OV+3CByNgV+ZZKGuPoZGl1lWXZSfP5Q6HU2vX3j775+/EaXgUAAACYXtPS4ykSyy/ovBsD/0DnSLv/eLOOLwYAAACYXnM+pdkep/ls/H98//nPms18GQAAAMC0m/MpDQAAAEBISGkAAAAAIkJKAwAAABARUhoAAACAiJDSAAAAAESElAYAAAAgIqQ0AAAAABEhpQEAAACICCkNAAAAQERIaQAAAAAiQkoDAAAAEBFSGgAAAICIkNIAAAAARISUBgAAACAipDQAAAAAESGlAQAAAIgIKQ0AAABAREhpAAAAACJCSgMAAAAQEVIaAAAAgIiQ0gAAAABEhJQGAAAAICKkNAAAAAARIaUBAAAAiCci4v8H6Zf1/VTvcw4AAAAASUVORK5CYII=;" vertex="1" parent="1">
                    <mxGeometry x="1870" y="1419" width="823" height="474" as="geometry"/>
                </mxCell>
                <mxCell id="50" value="Syntax overview" style="text;html=1;strokeColor=#2D7600;fillColor=#60a917;align=center;verticalAlign=middle;whiteSpace=wrap;rounded=0;fontSize=40;fontStyle=0;fontColor=#ffffff;" vertex="1" parent="1">
                    <mxGeometry x="2106.5" y="1169" width="350" height="110" as="geometry"/>
                </mxCell>
                <mxCell id="52" value="Language overview" style="text;html=1;strokeColor=#2D7600;fillColor=#60a917;align=center;verticalAlign=middle;whiteSpace=wrap;rounded=0;fontSize=40;fontStyle=0;fontColor=#ffffff;" vertex="1" parent="1">
                    <mxGeometry x="2051.5" y="420" width="460" height="110" as="geometry"/>
                </mxCell>
                <mxCell id="53" value="A statically-typed, module-based and concept-based with a C-like syntax that tries to get right what C++ doesn't." style="text;html=1;strokeColor=none;fillColor=none;align=center;verticalAlign=middle;whiteSpace=wrap;rounded=0;fontSize=12;" vertex="1" parent="1">
                    <mxGeometry x="2050" y="590" width="460" height="90" as="geometry"/>
                </mxCell>
                <mxCell id="55" value="RigC bible:" style="text;html=1;strokeColor=none;fillColor=none;align=center;verticalAlign=middle;whiteSpace=wrap;rounded=0;fontSize=18;" vertex="1" parent="1">
                    <mxGeometry x="2050" y="700" width="460" height="50" as="geometry"/>
                </mxCell>
                <mxCell id="56" value="&lt;ul&gt;&lt;li&gt;use type inference where possible&lt;/li&gt;&lt;li&gt;modularize code from the very beginning&lt;/li&gt;&lt;li&gt;&lt;b&gt;always&lt;/b&gt; stick to the official naming convention&lt;br&gt;(&lt;font face=&quot;Consolas&quot; style=&quot;background-color: rgb(27 , 27 , 27)&quot;&gt;&lt;font color=&quot;#4ec9b0&quot;&gt;TypeName&lt;/font&gt;, &lt;font color=&quot;#dcdcaa&quot;&gt;functionName&lt;/font&gt;&lt;font color=&quot;#cc00cc&quot;&gt;()&lt;/font&gt;, &lt;font color=&quot;#9cdcfe&quot;&gt;varName&lt;/font&gt;&lt;/font&gt;, more on &quot;Naming convention&quot;)&lt;/li&gt;&lt;li&gt;use concepts to constrain templates from the very beginning&lt;/li&gt;&lt;li&gt;always use &lt;i&gt;lifetime-bound resources&lt;/i&gt;&lt;/li&gt;&lt;/ul&gt;" style="text;html=1;strokeColor=none;fillColor=none;align=left;verticalAlign=top;whiteSpace=wrap;rounded=0;fontSize=12;" vertex="1" parent="1">
                    <mxGeometry x="2051.5" y="790" width="460" height="330" as="geometry"/>
                </mxCell>
                <mxCell id="59" style="edgeStyle=orthogonalEdgeStyle;html=1;entryX=0.5;entryY=0;entryDx=0;entryDy=0;fontSize=12;exitX=0.5;exitY=1;exitDx=0;exitDy=0;" edge="1" parent="1" source="62" target="63">
                    <mxGeometry relative="1" as="geometry">
                        <Array as="points">
                            <mxPoint x="-1565" y="600"/>
                            <mxPoint x="-1715" y="600"/>
                        </Array>
                    </mxGeometry>
                </mxCell>
                <mxCell id="60" style="edgeStyle=orthogonalEdgeStyle;html=1;fontSize=12;entryX=0.5;entryY=0;entryDx=0;entryDy=0;" edge="1" parent="1" source="62" target="64">
                    <mxGeometry relative="1" as="geometry">
                        <Array as="points">
                            <mxPoint x="-1565" y="600"/>
                            <mxPoint x="-1405" y="600"/>
                        </Array>
                    </mxGeometry>
                </mxCell>
                <mxCell id="61" style="edgeStyle=orthogonalEdgeStyle;html=1;fontSize=12;exitX=0.5;exitY=1;exitDx=0;exitDy=0;entryX=0.5;entryY=0;entryDx=0;entryDy=0;" edge="1" parent="1" source="62" target="65">
                    <mxGeometry relative="1" as="geometry">
                        <Array as="points">
                            <mxPoint x="-1565" y="600"/>
                            <mxPoint x="-1090" y="600"/>
                        </Array>
                    </mxGeometry>
                </mxCell>
                <mxCell id="75" style="edgeStyle=orthogonalEdgeStyle;html=1;entryX=0.5;entryY=0;entryDx=0;entryDy=0;fontSize=12;fontColor=default;strokeColor=default;strokeWidth=1;exitX=0.5;exitY=1;exitDx=0;exitDy=0;jumpSize=1;" edge="1" parent="1" source="62" target="73">
                    <mxGeometry relative="1" as="geometry">
                        <Array as="points">
                            <mxPoint x="-1565" y="600"/>
                            <mxPoint x="-1985" y="600"/>
                        </Array>
                    </mxGeometry>
                </mxCell>
                <mxCell id="62" value="Related projects" style="text;html=1;strokeColor=#2D7600;fillColor=#60a917;align=center;verticalAlign=middle;whiteSpace=wrap;rounded=0;fontSize=40;fontStyle=0;fontColor=#ffffff;" vertex="1" parent="1">
                    <mxGeometry x="-1740" y="420" width="350" height="110" as="geometry"/>
                </mxCell>
                <mxCell id="63" value="vscode-rigc" style="text;html=1;strokeColor=#005700;fillColor=#008a00;align=center;verticalAlign=middle;whiteSpace=wrap;rounded=0;fontSize=24;fontColor=#ffffff;" vertex="1" parent="1">
                    <mxGeometry x="-1805" y="635" width="180" height="80" as="geometry"/>
                </mxCell>
                <mxCell id="64" value="Language server" style="text;html=1;strokeColor=#6F0000;fillColor=#a20025;align=center;verticalAlign=middle;whiteSpace=wrap;rounded=0;fontSize=24;fontColor=#ffffff;" vertex="1" parent="1">
                    <mxGeometry x="-1495" y="635" width="180" height="80" as="geometry"/>
                </mxCell>
                <mxCell id="65" value="Package Manager" style="text;html=1;strokeColor=#6F0000;fillColor=#a20025;align=center;verticalAlign=middle;whiteSpace=wrap;rounded=0;fontSize=24;fontColor=#ffffff;" vertex="1" parent="1">
                    <mxGeometry x="-1180" y="635" width="180" height="80" as="geometry"/>
                </mxCell>
                <mxCell id="66" value="A Visual Studio Code integration of syntax highlighting and other language-related tools for RigC" style="text;html=1;strokeColor=none;fillColor=none;align=center;verticalAlign=middle;whiteSpace=wrap;rounded=0;fontSize=12;" vertex="1" parent="1">
                    <mxGeometry x="-1810" y="740" width="190" height="60" as="geometry"/>
                </mxCell>
                <mxCell id="67" value="&lt;b&gt;(NOT STARTED YET)&lt;/b&gt;&lt;br&gt;A language server for RigC language&amp;nbsp;" style="text;html=1;strokeColor=none;fillColor=none;align=center;verticalAlign=middle;whiteSpace=wrap;rounded=0;fontSize=12;" vertex="1" parent="1">
                    <mxGeometry x="-1500" y="725" width="190" height="90" as="geometry"/>
                </mxCell>
                <mxCell id="68" value="&lt;b&gt;(NOT STARTED YET)&lt;/b&gt;&lt;br&gt;A package manger for RigC" style="text;html=1;strokeColor=none;fillColor=none;align=center;verticalAlign=middle;whiteSpace=wrap;rounded=0;fontSize=12;" vertex="1" parent="1">
                    <mxGeometry x="-1185" y="725" width="190" height="90" as="geometry"/>
                </mxCell>
                <mxCell id="69" value="Compiler" style="text;html=1;strokeColor=#6F0000;fillColor=#a20025;align=center;verticalAlign=middle;whiteSpace=wrap;rounded=0;fontSize=24;fontColor=#ffffff;" vertex="1" parent="1">
                    <mxGeometry x="427.5" y="635" width="180" height="80" as="geometry"/>
                </mxCell>
                <mxCell id="71" style="edgeStyle=orthogonalEdgeStyle;html=1;fontSize=12;exitX=0.5;exitY=1;exitDx=0;exitDy=0;entryX=0.5;entryY=0;entryDx=0;entryDy=0;" edge="1" parent="1" target="69">
                    <mxGeometry relative="1" as="geometry">
                        <Array as="points">
                            <mxPoint x="142.5" y="600"/>
                            <mxPoint x="517.5" y="600"/>
                        </Array>
                        <mxPoint x="142.45" y="520" as="sourcePoint"/>
                        <mxPoint x="267.4976190476188" y="635" as="targetPoint"/>
                    </mxGeometry>
                </mxCell>
                <mxCell id="72" value="&lt;b&gt;(NOT STARTED YET)&lt;/b&gt;&lt;br&gt;A compiler to LLVM IR code" style="text;html=1;strokeColor=none;fillColor=none;align=center;verticalAlign=middle;whiteSpace=wrap;rounded=0;fontSize=12;" vertex="1" parent="1">
                    <mxGeometry x="422.5" y="725" width="190" height="90" as="geometry"/>
                </mxCell>
                <mxCell id="73" value="Website" style="text;html=1;strokeColor=#6F0000;fillColor=#a20025;align=center;verticalAlign=middle;whiteSpace=wrap;rounded=0;fontSize=24;fontColor=#ffffff;" vertex="1" parent="1">
                    <mxGeometry x="-2075" y="635" width="180" height="80" as="geometry"/>
                </mxCell>
                <mxCell id="74" value="&lt;b&gt;(NOT STARTED YET)&lt;/b&gt;&lt;br&gt;An official website for the RigC language&amp;nbsp;" style="text;html=1;strokeColor=none;fillColor=none;align=center;verticalAlign=middle;whiteSpace=wrap;rounded=0;fontSize=12;" vertex="1" parent="1">
                    <mxGeometry x="-2080" y="725" width="190" height="90" as="geometry"/>
                </mxCell>
            </root>
        </mxGraphModel>
    </diagram>
</mxfile>
